#N canvas 390 221 1410 832 10;
#X obj 91 470 ctlout;
#N canvas 434 154 453 514 light0 0;
#X obj 58 171 vsl 15 128 0 127 0 0 empty empty empty 0 -9 0 10 -262144
-1 -1 5350 1;
#X msg 58 326 \$1 1;
#X obj 144 169 vsl 15 128 0 127 0 0 empty empty empty 0 -9 0 10 -262144
-1 -1 10650 1;
#X obj 214 171 vsl 15 128 0 127 0 0 empty empty empty 0 -9 0 10 -262144
-1 -1 11250 1;
#X msg 144 324 \$1 2;
#X msg 214 325 \$1 3;
#X obj 284 171 vsl 15 128 0 127 0 0 empty empty empty 0 -9 0 10 -262144
-1 -1 12700 1;
#X msg 284 326 \$1 7;
#X obj 116 411 outlet;
#X obj 284 117 loadbang;
#X msg 284 141 127;
#X obj 58 33 unpack f f f;
#X obj 58 137 / 2;
#X obj 144 136 / 2;
#X obj 58 6 inlet;
#X obj 58 113 line;
#X obj 179 14 inlet fadetime;
#X obj 105 60 f;
#X obj 58 57 t f b;
#X obj 58 88 pack f f;
#X obj 144 112 line;
#X obj 191 59 f;
#X obj 144 56 t f b;
#X obj 144 87 pack f f;
#X obj 218 110 line;
#X obj 265 57 f;
#X obj 218 54 t f b;
#X obj 218 85 pack f f;
#X obj 220 138 / 2;
#X connect 0 0 1 0;
#X connect 1 0 8 0;
#X connect 2 0 4 0;
#X connect 3 0 5 0;
#X connect 4 0 8 0;
#X connect 5 0 8 0;
#X connect 6 0 7 0;
#X connect 7 0 8 0;
#X connect 9 0 10 0;
#X connect 10 0 6 0;
#X connect 11 0 18 0;
#X connect 11 1 22 0;
#X connect 11 2 26 0;
#X connect 12 0 0 0;
#X connect 13 0 2 0;
#X connect 14 0 11 0;
#X connect 15 0 12 0;
#X connect 16 0 17 1;
#X connect 16 0 21 1;
#X connect 16 0 25 1;
#X connect 17 0 19 1;
#X connect 18 0 19 0;
#X connect 18 1 17 0;
#X connect 19 0 15 0;
#X connect 20 0 13 0;
#X connect 21 0 23 1;
#X connect 22 0 23 0;
#X connect 22 1 21 0;
#X connect 23 0 20 0;
#X connect 24 0 28 0;
#X connect 25 0 27 1;
#X connect 26 0 27 0;
#X connect 26 1 25 0;
#X connect 27 0 24 0;
#X connect 28 0 3 0;
#X restore 93 250 pd light0;
#X msg 15 179 252 41 51;
#N canvas 226 197 453 514 light1 0;
#X obj 58 171 vsl 15 128 0 127 0 0 empty empty empty 0 -9 0 10 -262144
-1 -1 12700 1;
#X obj 144 169 vsl 15 128 0 127 0 0 empty empty empty 0 -9 0 10 -262144
-1 -1 9100 1;
#X obj 214 171 vsl 15 128 0 127 0 0 empty empty empty 0 -9 0 10 -262144
-1 -1 5950 1;
#X obj 284 171 vsl 15 128 0 127 0 0 empty empty empty 0 -9 0 10 -262144
-1 -1 12700 1;
#X obj 116 411 outlet;
#X obj 284 117 loadbang;
#X msg 284 141 127;
#X obj 58 33 unpack f f f;
#X obj 58 137 / 2;
#X obj 144 136 / 2;
#X obj 58 6 inlet;
#X obj 58 113 line;
#X obj 179 14 inlet fadetime;
#X obj 105 60 f;
#X obj 58 57 t f b;
#X obj 58 88 pack f f;
#X obj 144 112 line;
#X obj 191 59 f;
#X obj 144 56 t f b;
#X obj 144 87 pack f f;
#X obj 218 110 line;
#X obj 265 57 f;
#X obj 218 54 t f b;
#X obj 218 85 pack f f;
#X obj 220 138 / 2;
#X msg 58 326 \$1 11;
#X msg 144 324 \$1 12;
#X msg 214 325 \$1 13;
#X msg 284 326 \$1 17;
#X connect 0 0 25 0;
#X connect 1 0 26 0;
#X connect 2 0 27 0;
#X connect 3 0 28 0;
#X connect 5 0 6 0;
#X connect 6 0 3 0;
#X connect 7 0 14 0;
#X connect 7 1 18 0;
#X connect 7 2 22 0;
#X connect 8 0 0 0;
#X connect 9 0 1 0;
#X connect 10 0 7 0;
#X connect 11 0 8 0;
#X connect 12 0 13 1;
#X connect 12 0 17 1;
#X connect 12 0 21 1;
#X connect 13 0 15 1;
#X connect 14 0 15 0;
#X connect 14 1 13 0;
#X connect 15 0 11 0;
#X connect 16 0 9 0;
#X connect 17 0 19 1;
#X connect 18 0 19 0;
#X connect 18 1 17 0;
#X connect 19 0 16 0;
#X connect 20 0 24 0;
#X connect 21 0 23 1;
#X connect 22 0 23 0;
#X connect 22 1 21 0;
#X connect 23 0 20 0;
#X connect 24 0 2 0;
#X connect 25 0 4 0;
#X connect 26 0 4 0;
#X connect 27 0 4 0;
#X connect 28 0 4 0;
#X restore 413 271 pd light1;
#N canvas 67 89 452 514 light2 0;
#X obj 58 171 vsl 15 128 0 127 0 0 empty empty empty 0 -9 0 10 -262144
-1 -1 12700 1;
#X obj 144 169 vsl 15 128 0 127 0 0 empty empty empty 0 -9 0 10 -262144
-1 -1 10850 1;
#X obj 214 171 vsl 15 128 0 127 0 0 empty empty empty 0 -9 0 10 -262144
-1 -1 7100 1;
#X obj 284 171 vsl 15 128 0 127 0 0 empty empty empty 0 -9 0 10 -262144
-1 -1 12700 1;
#X obj 116 411 outlet;
#X obj 284 117 loadbang;
#X msg 284 141 127;
#X obj 58 33 unpack f f f;
#X obj 58 137 / 2;
#X obj 144 136 / 2;
#X obj 58 6 inlet;
#X obj 58 113 line;
#X obj 179 14 inlet fadetime;
#X obj 105 60 f;
#X obj 58 57 t f b;
#X obj 58 88 pack f f;
#X obj 144 112 line;
#X obj 191 59 f;
#X obj 144 56 t f b;
#X obj 144 87 pack f f;
#X obj 218 110 line;
#X obj 265 57 f;
#X obj 218 54 t f b;
#X obj 218 85 pack f f;
#X obj 220 138 / 2;
#X msg 58 326 \$1 21;
#X msg 144 324 \$1 22;
#X msg 214 325 \$1 23;
#X msg 284 326 \$1 27;
#X connect 0 0 25 0;
#X connect 1 0 26 0;
#X connect 2 0 27 0;
#X connect 3 0 28 0;
#X connect 5 0 6 0;
#X connect 6 0 3 0;
#X connect 7 0 14 0;
#X connect 7 1 18 0;
#X connect 7 2 22 0;
#X connect 8 0 0 0;
#X connect 9 0 1 0;
#X connect 10 0 7 0;
#X connect 11 0 8 0;
#X connect 12 0 13 1;
#X connect 12 0 17 1;
#X connect 12 0 21 1;
#X connect 13 0 15 1;
#X connect 14 0 15 0;
#X connect 14 1 13 0;
#X connect 15 0 11 0;
#X connect 16 0 9 0;
#X connect 17 0 19 1;
#X connect 18 0 19 0;
#X connect 18 1 17 0;
#X connect 19 0 16 0;
#X connect 20 0 24 0;
#X connect 21 0 23 1;
#X connect 22 0 23 0;
#X connect 22 1 21 0;
#X connect 23 0 20 0;
#X connect 24 0 2 0;
#X connect 25 0 4 0;
#X connect 26 0 4 0;
#X connect 27 0 4 0;
#X connect 28 0 4 0;
#X restore 472 455 pd light2;
#N canvas 67 89 453 514 light3 0;
#X obj 58 171 vsl 15 128 0 127 0 0 empty empty empty 0 -9 0 10 -262144
-1 -1 12700 1;
#X obj 144 169 vsl 15 128 0 127 0 0 empty empty empty 0 -9 0 10 -262144
-1 -1 6550 1;
#X obj 214 171 vsl 15 128 0 127 0 0 empty empty empty 0 -9 0 10 -262144
-1 -1 5000 1;
#X obj 284 171 vsl 15 128 0 127 0 0 empty empty empty 0 -9 0 10 -262144
-1 -1 12700 1;
#X obj 116 411 outlet;
#X obj 284 117 loadbang;
#X msg 284 141 127;
#X obj 58 33 unpack f f f;
#X obj 58 137 / 2;
#X obj 144 136 / 2;
#X obj 58 6 inlet;
#X obj 58 113 line;
#X obj 179 14 inlet fadetime;
#X obj 105 60 f;
#X obj 58 57 t f b;
#X obj 58 88 pack f f;
#X obj 144 112 line;
#X obj 191 59 f;
#X obj 144 56 t f b;
#X obj 144 87 pack f f;
#X obj 218 110 line;
#X obj 265 57 f;
#X obj 218 54 t f b;
#X obj 218 85 pack f f;
#X obj 220 138 / 2;
#X msg 58 326 \$1 31;
#X msg 144 324 \$1 32;
#X msg 214 325 \$1 33;
#X msg 284 325 \$1 37;
#X floatatom 307 366 5 0 0 0 - - -, f 5;
#X floatatom 227 376 5 0 0 0 - - -, f 5;
#X floatatom 149 362 5 0 0 0 - - -, f 5;
#X floatatom 53 359 5 0 0 0 - - -, f 5;
#X connect 0 0 25 0;
#X connect 0 0 32 0;
#X connect 1 0 26 0;
#X connect 1 0 31 0;
#X connect 2 0 27 0;
#X connect 2 0 30 0;
#X connect 3 0 28 0;
#X connect 3 0 29 0;
#X connect 5 0 6 0;
#X connect 6 0 3 0;
#X connect 7 0 14 0;
#X connect 7 1 18 0;
#X connect 7 2 22 0;
#X connect 8 0 0 0;
#X connect 9 0 1 0;
#X connect 10 0 7 0;
#X connect 11 0 8 0;
#X connect 12 0 13 1;
#X connect 12 0 17 1;
#X connect 12 0 21 1;
#X connect 13 0 15 1;
#X connect 14 0 15 0;
#X connect 14 1 13 0;
#X connect 15 0 11 0;
#X connect 16 0 9 0;
#X connect 17 0 19 1;
#X connect 18 0 19 0;
#X connect 18 1 17 0;
#X connect 19 0 16 0;
#X connect 20 0 24 0;
#X connect 21 0 23 1;
#X connect 22 0 23 0;
#X connect 22 1 21 0;
#X connect 23 0 20 0;
#X connect 24 0 2 0;
#X connect 25 0 4 0;
#X connect 26 0 4 0;
#X connect 27 0 4 0;
#X connect 28 0 4 0;
#X restore 437 603 pd light3;
#X obj 189 53 select 0 1 2 3;
#X obj 15 154 r g1;
#X obj 91 154 r g2;
#X obj 170 152 r g3;
#X obj 246 152 r g4;
#X obj 323 181 r g1;
#X obj 399 181 r g2;
#X obj 478 179 r g3;
#X obj 554 179 r g4;
#X obj 370 365 r g1;
#X obj 446 365 r g2;
#X obj 525 363 r g3;
#X obj 601 363 r g4;
#X obj 363 500 r g1;
#X obj 439 500 r g2;
#X obj 518 498 r g3;
#X obj 594 498 r g4;
#X obj 177 98 s g1;
#X obj 214 98 s g2;
#X obj 251 98 s g3;
#X obj 288 98 s g4;
#X obj 187 23 mod 3;
#X obj 144 -41 bng 15 250 50 0 empty empty empty 17 7 0 10 -262144
-1 -1;
#X obj 186 -10 f;
#X obj 222 -10 + 1;
#X msg 236 249 2000;
#X obj 185 -94 tgl 15 0 empty empty empty 17 7 0 10 -262144 -1 -1 1
1;
#X obj 236 223 loadbang;
#X floatatom 115 40 5 0 0 0 - - -, f 5;
#X msg 309 211 253 43 242;
#X msg 368 395 254 242 58;
#X msg 359 531 253 236 233;
#X msg 91 180 36 230 52;
#X msg 385 212 254 147 18;
#X msg 444 396 254 247 168;
#X msg 435 532 11 107 15;
#X msg 170 180 107 213 225;
#X msg 464 212 255 182 119;
#X msg 523 396 255 217 142;
#X msg 514 532 255 131 100;
#X msg 245 180 8 29 215;
#X msg 546 213 253 212 48;
#X msg 605 397 251 71 75;
#X msg 596 533 85 15 133;
#X obj 384 14 ctlin 1;
#X obj 388 53 bng 15 250 50 0 empty empty empty 17 7 0 10 -262144 -1
-1;
#X obj 186 -40 metro 20000;
#X obj 795 235 dac~;
#X obj 597 -58 soundfiler;
#X obj 597 -34 outlet;
#X obj 677 152 cyclone/play~ ocean;
#X obj 805 205 *~;
#X obj 820 33 vsl 15 128 0 127 0 0 empty empty empty 0 -9 0 10 -262144
-1 -1 600 1;
#X obj 670 -58 table ocean;
#X obj 597 -81 cyclone/loadmess read -resize ocean-waves.wav ocean
;
#X msg 658 116 loop \$1;
#X obj 691 3 tgl 15 0 empty empty empty 17 7 0 10 -262144 -1 -1 1 1
;
#X obj 820 173 / 127;
#X obj 764 514 *~;
#X obj 779 482 / 127;
#X obj 760 548 dac~;
#X obj 782 332 vsl 15 128 0 127 0 0 empty empty empty 0 -9 0 10 -262144
-1 -1 0 1;
#X obj 712 390 line;
#X msg 711 362 \$1 3000;
#X obj 711 308 r new;
#X obj 1015 -6 s new;
#X obj 1015 -36 metro 62000;
#X obj 1016 -66 tgl 15 0 empty empty empty 17 7 0 10 -262144 -1 -1
1 1;
#X obj 741 82 line;
#X msg 740 54 \$1 3000;
#X obj 739 -12 r new;
#X text 688 450 sou'wester lat;
#X obj 929 523 *~;
#X obj 944 491 / 127;
#X obj 925 557 dac~;
#X obj 947 341 vsl 15 128 0 127 0 0 empty empty empty 0 -9 0 10 -262144
-1 -1 0 1;
#X obj 877 399 line;
#X msg 876 371 \$1 3000;
#X obj 875 305 r new;
#X obj 855 435 osc~ 46.19;
#X text 840 455 sou'wester long;
#X obj 1100 528 *~;
#X obj 1115 496 / 127;
#X obj 1096 562 dac~;
#X obj 1118 346 vsl 15 128 0 127 0 0 empty empty empty 0 -9 0 10 -262144
-1 -1 0 1;
#X obj 1048 404 line;
#X msg 1047 376 \$1 3000;
#X obj 1046 310 r new;
#X text 1011 460 sou'wester long*2;
#X obj 1026 440 osc~ 92.38;
#X obj 739 21 random 10;
#X obj 1228 530 *~;
#X obj 1243 498 / 127;
#X obj 1224 564 dac~;
#X obj 1246 348 vsl 15 128 0 127 0 0 empty empty empty 0 -9 0 10 -262144
-1 -1 0 1;
#X obj 1176 406 line;
#X msg 1175 378 \$1 3000;
#X obj 1175 324 r new;
#X text 1152 466 sou'wester lat*2;
#X obj 1154 442 osc~ 248.06;
#X obj 1175 345 random 20;
#X obj 1046 343 random 20;
#X obj 875 338 random 20;
#X obj 711 329 random 20;
#X obj 690 426 osc~ 124.03;
#X connect 1 0 0 0;
#X connect 2 0 1 0;
#X connect 3 0 0 0;
#X connect 4 0 0 0;
#X connect 5 0 0 0;
#X connect 6 0 23 0;
#X connect 6 1 24 0;
#X connect 6 2 25 0;
#X connect 6 3 26 0;
#X connect 7 0 2 0;
#X connect 8 0 38 0;
#X connect 9 0 42 0;
#X connect 10 0 46 0;
#X connect 11 0 35 0;
#X connect 12 0 39 0;
#X connect 13 0 43 0;
#X connect 14 0 47 0;
#X connect 15 0 36 0;
#X connect 16 0 40 0;
#X connect 17 0 44 0;
#X connect 18 0 48 0;
#X connect 19 0 37 0;
#X connect 20 0 41 0;
#X connect 21 0 45 0;
#X connect 22 0 49 0;
#X connect 27 0 6 0;
#X connect 27 0 34 0;
#X connect 28 0 29 0;
#X connect 29 0 30 0;
#X connect 29 0 27 0;
#X connect 30 0 29 1;
#X connect 31 0 1 1;
#X connect 31 0 3 1;
#X connect 31 0 4 1;
#X connect 31 0 5 1;
#X connect 32 0 52 0;
#X connect 33 0 31 0;
#X connect 35 0 3 0;
#X connect 36 0 4 0;
#X connect 37 0 5 0;
#X connect 38 0 1 0;
#X connect 39 0 3 0;
#X connect 40 0 4 0;
#X connect 41 0 5 0;
#X connect 42 0 1 0;
#X connect 43 0 3 0;
#X connect 44 0 4 0;
#X connect 45 0 5 0;
#X connect 46 0 1 0;
#X connect 47 0 3 0;
#X connect 48 0 4 0;
#X connect 49 0 5 0;
#X connect 50 0 51 0;
#X connect 51 0 29 0;
#X connect 52 0 29 0;
#X connect 54 0 55 0;
#X connect 56 0 57 0;
#X connect 57 0 53 0;
#X connect 57 0 53 1;
#X connect 58 0 63 0;
#X connect 60 0 54 0;
#X connect 61 0 56 0;
#X connect 62 0 61 0;
#X connect 62 0 56 0;
#X connect 63 0 57 1;
#X connect 64 0 66 0;
#X connect 64 0 66 1;
#X connect 65 0 64 1;
#X connect 67 0 65 0;
#X connect 68 0 67 0;
#X connect 69 0 68 0;
#X connect 70 0 109 0;
#X connect 72 0 71 0;
#X connect 73 0 72 0;
#X connect 74 0 58 0;
#X connect 75 0 74 0;
#X connect 76 0 96 0;
#X connect 78 0 80 0;
#X connect 78 0 80 1;
#X connect 79 0 78 1;
#X connect 81 0 79 0;
#X connect 82 0 81 0;
#X connect 83 0 82 0;
#X connect 84 0 108 0;
#X connect 85 0 78 0;
#X connect 87 0 89 0;
#X connect 87 0 89 1;
#X connect 88 0 87 1;
#X connect 90 0 88 0;
#X connect 91 0 90 0;
#X connect 92 0 91 0;
#X connect 93 0 107 0;
#X connect 95 0 87 0;
#X connect 96 0 75 0;
#X connect 97 0 99 0;
#X connect 97 0 99 1;
#X connect 98 0 97 1;
#X connect 100 0 98 0;
#X connect 101 0 100 0;
#X connect 102 0 101 0;
#X connect 103 0 106 0;
#X connect 105 0 97 0;
#X connect 106 0 102 0;
#X connect 107 0 92 0;
#X connect 108 0 83 0;
#X connect 109 0 69 0;
#X connect 110 0 64 0;
