#N canvas 356 214 1023 657 10;
#X obj 518 282 line~;
#X obj 518 193 mtof;
#X msg 518 216 1000 \$1;
#X obj 518 238 /;
#X obj 578 47 vsl 15 128 0 127 0 0 empty empty empty 0 -9 0 10 -262144
-1 -1 6000 1;
#X floatatom 579 188 5 0 0 0 - - -;
#X obj 78 86 line~;
#X obj 335 325 outlet~;
#X obj 247 145 lop~ 1000;
#X floatatom 401 69 5 0 0 0 - - -;
#X obj 401 90 t b f;
#X obj 404 47 hsl 128 15 0 10 0 0 empty empty empty -2 -8 0 10 -262144
-1 -1 10100 1;
#X obj 47 1 inlet trigger;
#X obj 159 19 inlet env;
#X obj 401 17 inlet excitation;
#X obj 578 9 inlet pitch;
#X msg 56 51 0.5 \, 0 2;
#X obj 60 166 *~;
#X obj 19 112 noise~;
#X obj 58 196 *~ 0.8;
#X obj 168 185 delwrite~ \$0-kstrong 100;
#X obj 256 11 vd~ \$0-kstrong 10;
#X obj 241 35 *~ 0.5;
#X obj 253 84 +~;
#X obj 284 60 *~ 0.5;
#X obj 247 118 *~ 0.99;
#X obj 401 112 * 4;
#X obj 643 82 t b f;
#X obj 518 262 pack f 15;
#X obj 643 117 delay 15;
#X obj 517 23 loadbang;
#X msg 522 74 7;
#X connect 0 0 21 0;
#X connect 1 0 2 0;
#X connect 1 0 26 0;
#X connect 2 0 3 0;
#X connect 3 0 28 0;
#X connect 4 0 1 0;
#X connect 4 0 5 0;
#X connect 6 0 17 1;
#X connect 8 0 20 0;
#X connect 8 0 7 0;
#X connect 9 0 10 0;
#X connect 10 0 26 0;
#X connect 10 1 26 1;
#X connect 11 0 9 0;
#X connect 12 0 16 0;
#X connect 13 0 6 0;
#X connect 14 0 11 0;
#X connect 15 0 27 0;
#X connect 16 0 6 0;
#X connect 17 0 19 0;
#X connect 18 0 17 0;
#X connect 19 0 20 0;
#X connect 21 0 22 0;
#X connect 21 0 24 0;
#X connect 22 0 23 0;
#X connect 23 0 25 0;
#X connect 24 0 23 1;
#X connect 25 0 8 0;
#X connect 26 0 8 1;
#X connect 27 0 29 0;
#X connect 27 1 4 0;
#X connect 28 0 0 0;
#X connect 29 0 16 0;
#X connect 30 0 31 0;
#X connect 31 0 11 0;
