#N canvas 811 39 754 866 10;
#X obj 31 102 sel 127;
#X obj 31 39 ctlin 1;
#X obj 31 149 bng 15 250 50 0 empty empty empty 17 7 0 10 -262144 -1
-1;
#X obj 31 268 phasor~ 400;
#X obj 30 297 vcf~ 1;
#X obj 160 258 sig~;
#X obj 158 171 hsl 128 15 0 127 0 0 empty empty empty -2 -8 0 10 -262144
-1 -1 0 1;
#X obj 164 211 mtof;
#X obj 155 147 line, f 7;
#X obj 123 330 / 127;
#X msg 155 118 127 \, 0 500;
#X obj 31 196 random 127;
#X obj 31 230 mtof;
#X floatatom 495 269 0 0 0 0 - - -;
#X obj 495 244 receive hitL;
#X obj 397 313 line~;
#X obj 397 341 tabread4~ hitL;
#X msg 397 285 0 \, \$1 \$2;
#X obj 391 204 f;
#X obj 397 261 pack f f;
#X obj 394 235 t f f;
#X obj 333 61 bng 15 250 50 0 empty empty empty 17 7 0 10 -262144 -1
-1;
#X obj 429 203 / 44;
#X obj 399 171 t b b;
#X obj 29 357 *~;
#X obj 82 401 *~ 0.2;
#X obj 461 161 random 1000;
#X obj 277 365 jon~;
#N canvas 66 50 387 608 receive_params 0;
#X msg 58 293 input_diffusion1 \$1;
#X msg 70 349 input_diffusion2 \$1;
#X msg 78 410 decay_diffusion1 \$1;
#X msg 87 469 decay_diffusion2 \$1;
#X msg 33 75 predelay \$1;
#X msg 33 132 bandwidth \$1;
#X msg 33 183 damping \$1;
#X msg 33 238 decay \$1;
#X msg 125 533 excursion \$1;
#X obj 33 547 outlet;
#X obj 33 48 r predelay;
#X obj 33 105 r bandwidth;
#X obj 33 159 r damping;
#X obj 33 213 r decay;
#X obj 58 268 r input_diffusion1;
#X obj 70 322 r input_diffusion2;
#X obj 78 383 r decay_diffusion1;
#X obj 87 442 r decay_diffusion2;
#X obj 125 503 r excursion;
#X connect 0 0 9 0;
#X connect 1 0 9 0;
#X connect 2 0 9 0;
#X connect 3 0 9 0;
#X connect 4 0 9 0;
#X connect 5 0 9 0;
#X connect 6 0 9 0;
#X connect 7 0 9 0;
#X connect 8 0 9 0;
#X connect 10 0 4 0;
#X connect 11 0 5 0;
#X connect 12 0 6 0;
#X connect 13 0 7 0;
#X connect 14 0 0 0;
#X connect 15 0 1 0;
#X connect 16 0 2 0;
#X connect 17 0 3 0;
#X connect 18 0 8 0;
#X restore 253 314 pd receive_params;
#X text 553 484 toggle dry/wet output:;
#N canvas 0 50 474 324 presets 0;
#X msg 37 67 default;
#X msg 55 138 huge;
#X msg 37 159 huge_noexcursion;
#X msg 37 90 large;
#X msg 37 113 large_noexcursion;
#X msg 37 182 tadada;
#X msg 227 183 metallic;
#X msg 227 159 bubblebath;
#N canvas 15 98 678 492 preset_loader 0;
#X obj 40 26 inlet;
#X msg 43 122 \; param1 0 \; param2 22050 \; param3 22050 \; param4
0.5 \; param5 0.75 \; param6 0.625 \; param7 0.7 \; param8 0.5 \; param9
0.53761 \;;
#X msg 19 306 \; param1 0 \; param2 10000 \; param3 4637 \; param4
0.98 \; param5 0.685 \; param6 0.779 \; param7 0.74 \; param8 0.68
\; param9 0.53761 \;;
#X msg 199 123 \; param1 0 \; param2 10000 \; param3 4637 \; param4
0.98 \; param5 0.685 \; param6 0.779 \; param7 0.74 \; param8 0.68
\; param9 0 \;;
#X msg 181 303 \; param1 10 \; param2 10000 \; param3 4637 \; param4
0.99 \; param5 0.685 \; param6 0.779 \; param7 0.889 \; param8 0.84
\; param9 0.53761 \;;
#X msg 359 131 \; param1 10 \; param2 10000 \; param3 4637 \; param4
0.99 \; param5 0.685 \; param6 0.779 \; param7 0.889 \; param8 0.84
\; param9 0 \;;
#X msg 346 302 \; param1 216.535 \; param2 22050 \; param3 22050 \;
param4 0.677165 \; param5 0.850394 \; param6 0.92126 \; param7 0.80315
\; param8 0.818898 \; param9 0.11811 \;;
#X obj 39 70 route default large large_noexcursion huge huge_noexcursion
tadada;
#X connect 0 0 7 0;
#X connect 7 0 1 0;
#X connect 7 1 2 0;
#X connect 7 2 3 0;
#X connect 7 3 4 0;
#X connect 7 4 5 0;
#X connect 7 5 6 0;
#X restore 37 219 pd preset_loader;
#N canvas 15 98 678 492 preset_loader 0;
#X obj 40 26 inlet;
#X msg 39 203 \; param1 0 \; param2 22050 \; param3 22050 \; param4
0.653543 \; param5 0.629921 \; param6 0.409449 \; param7 0.889764 \;
param8 0.866142 \; param9 0 \;;
#X msg 209 204 \; param1 0 \; param2 2894.14 \; param3 22050 \; param4
0.92126 \; param5 0.897638 \; param6 0.299213 \; param7 0.984252 \;
param8 0.944882 \; param9 0.393701 \;;
#X obj 39 70 route metallic bubblebath;
#X connect 0 0 3 0;
#X connect 3 0 1 0;
#X connect 3 1 2 0;
#X restore 227 219 pd preset_loader;
#X obj 37 17 loadbang;
#X connect 0 0 8 0;
#X connect 1 0 8 0;
#X connect 2 0 8 0;
#X connect 3 0 8 0;
#X connect 4 0 8 0;
#X connect 5 0 8 0;
#X connect 6 0 9 0;
#X connect 7 0 9 0;
#X connect 10 0 1 0;
#X restore 573 446 pd presets;
#N canvas 0 50 462 311 dry 0;
#X obj 75 73 inlet;
#X obj 182 45 inlet;
#X obj 77 201 s dry;
#X obj 76 149 * 1;
#X obj 181 79 dbtorms;
#X obj 181 109 t b a;
#X connect 0 0 3 0;
#X connect 1 0 4 0;
#X connect 3 0 2 0;
#X connect 4 0 5 0;
#X connect 5 0 3 0;
#X connect 5 1 3 1;
#X restore 576 539 pd dry;
#X obj 576 518 tgl 15 1 empty empty empty 17 7 0 10 -262144 -1 -1 1
1;
#X obj 576 574 tgl 15 1 empty empty empty 17 7 0 10 -262144 -1 -1 1
1;
#N canvas 0 50 470 319 wet 0;
#X obj 75 73 inlet;
#X obj 162 43 inlet;
#X obj 76 149 * 1;
#X obj 161 80 dbtorms;
#X obj 77 201 s wet;
#X obj 162 111 t b a;
#X connect 0 0 2 0;
#X connect 1 0 3 0;
#X connect 2 0 4 0;
#X connect 3 0 5 0;
#X connect 5 0 2 0;
#X connect 5 1 2 1;
#X restore 576 594 pd wet;
#N canvas 670 63 288 344 params 0;
#X obj 25 92 hsl 128 15 220.5 22050 1 0 param3 param3 damping -2 -8
0 10 -262144 -1 -1 8400 0;
#X floatatom 157 91 10 0 0 0 - param3 damping;
#X obj 25 123 hsl 128 15 0 1 0 0 param4 param4 decay -2 -8 0 10 -262144
-1 -1 12573 0;
#X floatatom 157 122 10 0 0 0 - param4 decay;
#X obj 25 28 hsl 128 15 0 250 0 0 param1 param1 predelay -2 -8 0 10
-262144 -1 -1 508 0;
#X floatatom 157 27 10 0 0 0 - param1 predelay;
#X obj 25 60 hsl 128 15 220.5 22050 1 0 param2 param2 bandwidth -2
-8 0 10 -262144 -1 -1 10519 0;
#X floatatom 157 59 10 0 0 0 - param2 bandwidth;
#X obj 24 191 hsl 128 15 0 1 0 0 param6 param6 input_diffusion_2 -2
-8 0 10 -262144 -1 -1 9893 0;
#X floatatom 156 190 10 0 0 0 - param6 input_diffusion2;
#X obj 25 156 hsl 128 15 0 1 0 0 param5 param5 input_diffusion_1 -2
-8 0 10 -262144 -1 -1 8700 0;
#X floatatom 157 155 10 0 0 0 - param5 input_diffusion1;
#X obj 23 255 hsl 128 15 0 1 0 0 param8 param8 decay_diffusion_2 -2
-8 0 10 -262144 -1 -1 10668 0;
#X floatatom 155 254 10 0 0 0 - param8 decay_diffusion2;
#X obj 24 222 hsl 128 15 0 1 0 0 param7 param7 decay_diffusion_1 -2
-8 0 10 -262144 -1 -1 11290 0;
#X floatatom 156 221 10 0 0 0 - param7 decay_diffusion1;
#X obj 23 287 hsl 128 15 0 5 0 0 param9 param9 excursion -2 -8 0 10
-262144 -1 -1 1366 0;
#X floatatom 155 286 10 0 0 0 - param9 excursion;
#X restore 574 383 pd params;
#X text 553 420 click to select presets:;
#X text 551 358 click to edit parameters:;
#X obj 619 518 nbx 3 14 -1e+037 1e+037 0 1 empty empty empty 0 -8 0
10 -262144 -1 -1 100 256;
#X obj 619 574 nbx 3 14 -1e+037 1e+037 0 1 empty empty empty 0 -8 0
10 -262144 -1 -1 100 256;
#X obj 277 435 *~ 1;
#X obj 275 469 dac~;
#N canvas 0 50 880 587 tables 0;
#X obj 83 135 soundfiler;
#X obj 82 68 table hitL;
#X obj 83 90 table hitR;
#X msg 32 33 read -resize bin_hit.wav hitL hitR;
#X obj 83 161 send hitL;
#X obj 356 137 soundfiler;
#X msg 305 35 read -resize rain_under_cover.wav rainL rainR;
#X obj 355 70 table rainL;
#X obj 356 92 table rainR;
#X obj 356 163 send rain;
#X obj 86 343 soundfiler;
#X msg 35 241 read -resize shells_in_store.wav shellsL shellsR;
#X obj 85 276 table shellsL;
#X obj 86 298 table shellsR;
#X obj 86 369 send shells;
#X connect 0 0 4 0;
#X connect 3 0 0 0;
#X connect 5 0 9 0;
#X connect 6 0 5 0;
#X connect 10 0 14 0;
#X connect 11 0 10 0;
#X restore 396 39 pd tables;
#X obj 25 543 cyclone/play~ rainL;
#X obj 155 542 cyclone/play~ rainL;
#X msg 119 511 loop 1;
#X obj 36 471 bng 15 250 50 0 empty empty empty 17 7 0 10 -262144 -1
-1;
#X obj 119 453 loadbang;
#X obj 59 707 dac~;
#X obj 25 565 *~ 1;
#X obj 155 564 *~ 1;
#X msg 36 504 1;
#X obj 201 642 random 100;
#X obj 203 662 / 100;
#X msg 203 683 \$1 5000;
#X obj 202 711 line;
#X obj 336 550 bng 15 250 50 0 empty empty empty 17 7 0 10 -262144
-1 -1;
#X obj 337 494 tgl 15 0 empty empty empty 17 7 0 10 -262144 -1 -1 1
1;
#X obj 333 629 random 100;
#X obj 335 649 / 100;
#X msg 335 670 \$1 5000;
#X obj 334 698 line;
#X msg 482 705 loop 1;
#X obj 399 665 bng 15 250 50 0 empty empty empty 17 7 0 10 -262144
-1 -1;
#X obj 482 647 loadbang;
#X obj 439 825 dac~;
#X obj 388 759 *~ 1;
#X obj 532 758 *~ 1;
#X msg 399 698 1;
#X obj 388 736 cyclone/play~ shellsL;
#X obj 532 736 cyclone/play~ shellsR;
#X obj 336 524 metro 10000;
#X obj 204 600 sel 1;
#X msg 231 622 0;
#X msg 429 605 0;
#X obj 402 583 sel 2;
#X obj 335 570 random 2;
#X connect 0 0 2 0;
#X connect 1 0 0 0;
#X connect 1 0 21 0;
#X connect 2 0 10 0;
#X connect 2 0 11 0;
#X connect 3 0 4 0;
#X connect 4 0 24 0;
#X connect 5 0 4 1;
#X connect 6 0 7 0;
#X connect 6 0 9 0;
#X connect 7 0 5 0;
#X connect 8 0 6 0;
#X connect 9 0 24 1;
#X connect 10 0 8 0;
#X connect 11 0 12 0;
#X connect 12 0 3 0;
#X connect 13 0 18 1;
#X connect 14 0 13 0;
#X connect 15 0 16 0;
#X connect 16 0 27 0;
#X connect 17 0 15 0;
#X connect 18 0 20 0;
#X connect 19 0 17 0;
#X connect 20 0 19 0;
#X connect 20 1 22 0;
#X connect 21 0 23 0;
#X connect 22 0 19 1;
#X connect 23 0 18 0;
#X connect 23 1 26 0;
#X connect 24 0 25 0;
#X connect 25 0 27 0;
#X connect 26 0 22 1;
#X connect 27 0 40 0;
#X connect 28 0 27 2;
#X connect 32 0 31 0;
#X connect 33 0 34 0;
#X connect 38 0 31 1;
#X connect 39 0 34 1;
#X connect 40 0 41 0;
#X connect 40 0 41 1;
#X connect 43 0 49 0;
#X connect 44 0 50 0;
#X connect 45 0 44 0;
#X connect 45 0 43 0;
#X connect 46 0 51 0;
#X connect 47 0 45 0;
#X connect 47 0 46 0;
#X connect 47 0 57 0;
#X connect 49 0 48 0;
#X connect 50 0 48 1;
#X connect 51 0 43 0;
#X connect 51 0 44 0;
#X connect 52 0 53 0;
#X connect 53 0 54 0;
#X connect 54 0 55 0;
#X connect 55 0 50 1;
#X connect 55 0 49 1;
#X connect 56 0 76 0;
#X connect 57 0 71 0;
#X connect 58 0 59 0;
#X connect 59 0 60 0;
#X connect 60 0 61 0;
#X connect 61 0 66 1;
#X connect 61 0 67 1;
#X connect 62 0 69 0;
#X connect 62 0 70 0;
#X connect 63 0 68 0;
#X connect 64 0 62 0;
#X connect 64 0 63 0;
#X connect 66 0 65 0;
#X connect 67 0 65 1;
#X connect 68 0 69 0;
#X connect 68 0 70 0;
#X connect 69 0 66 0;
#X connect 70 0 67 0;
#X connect 71 0 56 0;
#X connect 72 0 52 0;
#X connect 72 1 73 0;
#X connect 73 0 54 0;
#X connect 74 0 60 0;
#X connect 75 0 58 0;
#X connect 75 1 74 0;
#X connect 76 0 72 0;
#X connect 76 0 75 0;
