#N canvas 201 12 754 1012 10;
#X obj 31 102 sel 127;
#X obj 31 39 ctlin 1;
#X floatatom 495 269 0 0 0 0 - - -;
#X obj 495 244 receive hitL;
#X obj 397 313 line~;
#X obj 397 341 tabread4~ hitL;
#X msg 397 285 0 \, \$1 \$2;
#X obj 391 204 f;
#X obj 397 261 pack f f;
#X obj 394 235 t f f;
#X obj 333 61 bng 15 250 50 0 empty empty empty 17 7 0 10 -262144 -1
-1;
#X obj 429 203 / 44;
#X obj 399 171 t b b;
#X obj 461 161 random 1000;
#N canvas 66 50 387 608 receive_params 0;
#X msg 58 293 input_diffusion1 \$1;
#X msg 70 349 input_diffusion2 \$1;
#X msg 78 410 decay_diffusion1 \$1;
#X msg 87 469 decay_diffusion2 \$1;
#X msg 33 75 predelay \$1;
#X msg 33 132 bandwidth \$1;
#X msg 33 183 damping \$1;
#X msg 33 238 decay \$1;
#X msg 125 533 excursion \$1;
#X obj 33 547 outlet;
#X obj 33 48 r predelay;
#X obj 33 105 r bandwidth;
#X obj 33 159 r damping;
#X obj 33 213 r decay;
#X obj 58 268 r input_diffusion1;
#X obj 70 322 r input_diffusion2;
#X obj 78 383 r decay_diffusion1;
#X obj 87 442 r decay_diffusion2;
#X obj 125 503 r excursion;
#X connect 0 0 9 0;
#X connect 1 0 9 0;
#X connect 2 0 9 0;
#X connect 3 0 9 0;
#X connect 4 0 9 0;
#X connect 5 0 9 0;
#X connect 6 0 9 0;
#X connect 7 0 9 0;
#X connect 8 0 9 0;
#X connect 10 0 4 0;
#X connect 11 0 5 0;
#X connect 12 0 6 0;
#X connect 13 0 7 0;
#X connect 14 0 0 0;
#X connect 15 0 1 0;
#X connect 16 0 2 0;
#X connect 17 0 3 0;
#X connect 18 0 8 0;
#X restore 253 314 pd receive_params;
#X text 553 484 toggle dry/wet output:;
#N canvas 0 50 474 324 presets 0;
#X msg 37 67 default;
#X msg 55 138 huge;
#X msg 37 159 huge_noexcursion;
#X msg 37 90 large;
#X msg 37 113 large_noexcursion;
#X msg 37 182 tadada;
#X msg 227 183 metallic;
#X msg 227 159 bubblebath;
#N canvas 15 98 678 492 preset_loader 0;
#X obj 40 26 inlet;
#X msg 43 122 \; param1 0 \; param2 22050 \; param3 22050 \; param4
0.5 \; param5 0.75 \; param6 0.625 \; param7 0.7 \; param8 0.5 \; param9
0.53761 \;;
#X msg 19 306 \; param1 0 \; param2 10000 \; param3 4637 \; param4
0.98 \; param5 0.685 \; param6 0.779 \; param7 0.74 \; param8 0.68
\; param9 0.53761 \;;
#X msg 199 123 \; param1 0 \; param2 10000 \; param3 4637 \; param4
0.98 \; param5 0.685 \; param6 0.779 \; param7 0.74 \; param8 0.68
\; param9 0 \;;
#X msg 181 303 \; param1 10 \; param2 10000 \; param3 4637 \; param4
0.99 \; param5 0.685 \; param6 0.779 \; param7 0.889 \; param8 0.84
\; param9 0.53761 \;;
#X msg 359 131 \; param1 10 \; param2 10000 \; param3 4637 \; param4
0.99 \; param5 0.685 \; param6 0.779 \; param7 0.889 \; param8 0.84
\; param9 0 \;;
#X msg 346 302 \; param1 216.535 \; param2 22050 \; param3 22050 \;
param4 0.677165 \; param5 0.850394 \; param6 0.92126 \; param7 0.80315
\; param8 0.818898 \; param9 0.11811 \;;
#X obj 39 70 route default large large_noexcursion huge huge_noexcursion
tadada;
#X connect 0 0 7 0;
#X connect 7 0 1 0;
#X connect 7 1 2 0;
#X connect 7 2 3 0;
#X connect 7 3 4 0;
#X connect 7 4 5 0;
#X connect 7 5 6 0;
#X restore 37 219 pd preset_loader;
#N canvas 15 98 678 492 preset_loader 0;
#X obj 40 26 inlet;
#X msg 39 203 \; param1 0 \; param2 22050 \; param3 22050 \; param4
0.653543 \; param5 0.629921 \; param6 0.409449 \; param7 0.889764 \;
param8 0.866142 \; param9 0 \;;
#X msg 209 204 \; param1 0 \; param2 2894.14 \; param3 22050 \; param4
0.92126 \; param5 0.897638 \; param6 0.299213 \; param7 0.984252 \;
param8 0.944882 \; param9 0.393701 \;;
#X obj 39 70 route metallic bubblebath;
#X connect 0 0 3 0;
#X connect 3 0 1 0;
#X connect 3 1 2 0;
#X restore 227 219 pd preset_loader;
#X obj 37 17 loadbang;
#X connect 0 0 8 0;
#X connect 1 0 8 0;
#X connect 2 0 8 0;
#X connect 3 0 8 0;
#X connect 4 0 8 0;
#X connect 5 0 8 0;
#X connect 6 0 9 0;
#X connect 7 0 9 0;
#X connect 10 0 1 0;
#X restore 573 446 pd presets;
#N canvas 0 50 462 311 dry 0;
#X obj 75 73 inlet;
#X obj 182 45 inlet;
#X obj 77 201 s dry;
#X obj 76 149 * 1;
#X obj 181 79 dbtorms;
#X obj 181 109 t b a;
#X connect 0 0 3 0;
#X connect 1 0 4 0;
#X connect 3 0 2 0;
#X connect 4 0 5 0;
#X connect 5 0 3 0;
#X connect 5 1 3 1;
#X restore 576 539 pd dry;
#X obj 576 518 tgl 15 1 empty empty empty 17 7 0 10 -262144 -1 -1 1
1;
#X obj 576 574 tgl 15 1 empty empty empty 17 7 0 10 -262144 -1 -1 1
1;
#N canvas 0 50 470 319 wet 0;
#X obj 75 73 inlet;
#X obj 162 43 inlet;
#X obj 76 149 * 1;
#X obj 161 80 dbtorms;
#X obj 77 201 s wet;
#X obj 162 111 t b a;
#X connect 0 0 2 0;
#X connect 1 0 3 0;
#X connect 2 0 4 0;
#X connect 3 0 5 0;
#X connect 5 0 2 0;
#X connect 5 1 2 1;
#X restore 576 594 pd wet;
#N canvas 670 63 288 344 params 0;
#X obj 25 92 hsl 128 15 220.5 22050 1 0 param3 param3 damping -2 -8
0 10 -262144 -1 -1 8400 0;
#X floatatom 157 91 10 0 0 0 - param3 damping;
#X obj 25 123 hsl 128 15 0 1 0 0 param4 param4 decay -2 -8 0 10 -262144
-1 -1 12573 0;
#X floatatom 157 122 10 0 0 0 - param4 decay;
#X obj 25 28 hsl 128 15 0 250 0 0 param1 param1 predelay -2 -8 0 10
-262144 -1 -1 508 0;
#X floatatom 157 27 10 0 0 0 - param1 predelay;
#X obj 25 60 hsl 128 15 220.5 22050 1 0 param2 param2 bandwidth -2
-8 0 10 -262144 -1 -1 10519 0;
#X floatatom 157 59 10 0 0 0 - param2 bandwidth;
#X obj 24 191 hsl 128 15 0 1 0 0 param6 param6 input_diffusion_2 -2
-8 0 10 -262144 -1 -1 9893 0;
#X floatatom 156 190 10 0 0 0 - param6 input_diffusion2;
#X obj 25 156 hsl 128 15 0 1 0 0 param5 param5 input_diffusion_1 -2
-8 0 10 -262144 -1 -1 8700 0;
#X floatatom 157 155 10 0 0 0 - param5 input_diffusion1;
#X obj 23 255 hsl 128 15 0 1 0 0 param8 param8 decay_diffusion_2 -2
-8 0 10 -262144 -1 -1 10668 0;
#X floatatom 155 254 10 0 0 0 - param8 decay_diffusion2;
#X obj 24 222 hsl 128 15 0 1 0 0 param7 param7 decay_diffusion_1 -2
-8 0 10 -262144 -1 -1 11290 0;
#X floatatom 156 221 10 0 0 0 - param7 decay_diffusion1;
#X obj 23 287 hsl 128 15 0 5 0 0 param9 param9 excursion -2 -8 0 10
-262144 -1 -1 1366 0;
#X floatatom 155 286 10 0 0 0 - param9 excursion;
#X restore 574 383 pd params;
#X text 553 420 click to select presets:;
#X text 551 358 click to edit parameters:;
#X obj 619 518 nbx 3 14 -1e+037 1e+037 0 1 empty empty empty 0 -8 0
10 -262144 -1 -1 100 256;
#X obj 619 574 nbx 3 14 -1e+037 1e+037 0 1 empty empty empty 0 -8 0
10 -262144 -1 -1 100 256;
#X obj 276 428 dac~;
#N canvas 220 0 880 1028 tables 0;
#X obj 83 135 soundfiler;
#X obj 82 68 table hitL;
#X obj 83 90 table hitR;
#X msg 32 33 read -resize bin_hit.wav hitL hitR;
#X obj 83 161 send hitL;
#X obj 356 137 soundfiler;
#X msg 305 35 read -resize rain_under_cover.wav rainL rainR;
#X obj 355 70 table rainL;
#X obj 356 92 table rainR;
#X obj 356 163 send rain;
#X obj 86 343 soundfiler;
#X msg 35 241 read -resize shells_in_store.wav shellsL shellsR;
#X obj 85 276 table shellsL;
#X obj 86 298 table shellsR;
#X obj 86 369 send shells;
#X obj 457 353 soundfiler;
#X msg 406 251 read -resize humming_machine.wav humL humR;
#X obj 456 286 table humL;
#X obj 457 308 table humR;
#X obj 457 379 send hum;
#X obj 248 -2 loadbang;
#X obj 514 181 soundfiler;
#X msg 463 78 read -resize crossing_into_karman.wav crossingL crossingR
;
#X obj 513 114 table crossingL;
#X obj 514 136 table crossingR;
#X obj 514 207 send crossing;
#X obj 98 526 soundfiler;
#X msg 47 424 read -resize coinop_bird.wav birdL birdR;
#X obj 97 459 table birdL;
#X obj 98 481 table birdR;
#X obj 98 552 send bird;
#X obj 448 512 soundfiler;
#X msg 396 409 read -resize hands_in_stones.wav stonesL stonesR;
#X obj 447 445 table stonesL;
#X obj 448 467 table stonesR;
#X obj 448 538 send stones;
#X obj 194 691 soundfiler;
#X obj 371 803 soundfiler;
#X obj 193 624 table ocean1L;
#X obj 194 646 table ocean1R;
#X obj 194 717 send ocean1;
#X obj 370 736 table ocean2L;
#X obj 371 758 table ocean2R;
#X obj 371 829 send ocean2;
#X obj 584 686 soundfiler;
#X obj 583 619 table passionL;
#X obj 584 641 table passionR;
#X obj 584 712 send passion;
#X msg 142 588 read -resize ocean.wav ocean1L ocean1R;
#X msg 319 700 read -resize ocean2.wav ocean2L ocean2R;
#X msg 550 578 read -resize passion_factor.wav passionL passionR;
#X connect 0 0 4 0;
#X connect 3 0 0 0;
#X connect 5 0 9 0;
#X connect 6 0 5 0;
#X connect 10 0 14 0;
#X connect 11 0 10 0;
#X connect 15 0 19 0;
#X connect 16 0 15 0;
#X connect 20 0 16 0;
#X connect 20 0 6 0;
#X connect 20 0 3 0;
#X connect 20 0 11 0;
#X connect 20 0 22 0;
#X connect 20 0 27 0;
#X connect 20 0 32 0;
#X connect 20 0 48 0;
#X connect 20 0 49 0;
#X connect 20 0 50 0;
#X connect 20 0 44 0;
#X connect 20 0 47 0;
#X connect 21 0 25 0;
#X connect 22 0 21 0;
#X connect 26 0 30 0;
#X connect 27 0 26 0;
#X connect 31 0 35 0;
#X connect 32 0 31 0;
#X connect 36 0 40 0;
#X connect 37 0 43 0;
#X connect 44 0 47 0;
#X connect 48 0 36 0;
#X connect 49 0 37 0;
#X connect 50 0 44 0;
#X restore 396 39 pd tables;
#X obj 337 462 loadbang;
#X obj 336 550 bng 15 250 50 0 empty empty empty 17 7 0 10 -262144
-1 -1;
#X obj 337 494 tgl 15 0 empty empty empty 17 7 0 10 -262144 -1 -1 1
1;
#X obj 277 365 jon~;
#X obj 336 524 metro 60000;
#N canvas 2 101 810 887 rain 0;
#X obj 237 220 random 100;
#X obj 239 240 / 100;
#X msg 239 261 \$1 5000;
#X obj 238 289 line;
#X msg 267 200 0;
#X obj 240 178 sel 0;
#X obj 61 121 tabplay~ rainL;
#X obj 191 120 tabplay~ rainL;
#X obj 61 56 r rain;
#X msg 187 204 1;
#X obj 61 86 bng 15 250 50 0 empty empty empty 17 7 0 10 -262144 -1
-1;
#X obj 334 55 inlet;
#X obj 72 588 dac~;
#X obj 29 310 attenuator;
#X obj 101 311 attenuator;
#X obj 14 545 *~;
#X obj 182 561 *~;
#X floatatom 163 528 5 0 0 0 - - -;
#X obj 88 256 loadbang;
#X obj 61 141 *~ 1;
#X obj 191 142 *~ 1;
#X msg 89 278 -28;
#X connect 0 0 1 0;
#X connect 1 0 2 0;
#X connect 2 0 3 0;
#X connect 3 0 19 1;
#X connect 3 0 20 1;
#X connect 4 0 2 0;
#X connect 5 0 0 0;
#X connect 5 1 4 0;
#X connect 6 0 19 0;
#X connect 6 1 10 0;
#X connect 7 0 20 0;
#X connect 8 0 10 0;
#X connect 9 0 2 0;
#X connect 10 0 6 0;
#X connect 10 0 7 0;
#X connect 11 0 5 0;
#X connect 13 0 15 1;
#X connect 14 0 16 1;
#X connect 14 1 17 0;
#X connect 15 0 12 0;
#X connect 16 0 12 1;
#X connect 18 0 21 0;
#X connect 19 0 15 0;
#X connect 20 0 16 0;
#X connect 21 0 14 0;
#X connect 21 0 13 0;
#X restore 240 623 pd rain;
#N canvas 2 107 450 370 shells 0;
#X obj 64 198 dac~;
#X obj 28 120 *~ 1;
#X obj 158 119 *~ 1;
#X obj 204 197 random 100;
#X obj 206 217 / 100;
#X msg 206 238 \$1 5000;
#X obj 205 266 line;
#X msg 234 177 0;
#X msg 154 181 1;
#X obj 28 63 bng 15 250 50 0 empty empty empty 17 7 0 10 -262144 -1
-1;
#X obj 301 32 inlet;
#X obj 28 34 r shells;
#X obj 28 98 tabplay~ shellsL;
#X obj 158 97 tabplay~ shellsR;
#X obj 207 155 sel 1;
#X connect 1 0 0 0;
#X connect 2 0 0 1;
#X connect 3 0 4 0;
#X connect 4 0 5 0;
#X connect 5 0 6 0;
#X connect 6 0 2 1;
#X connect 6 0 1 1;
#X connect 7 0 5 0;
#X connect 8 0 5 0;
#X connect 9 0 12 0;
#X connect 9 0 13 0;
#X connect 10 0 14 0;
#X connect 11 0 9 0;
#X connect 12 0 1 0;
#X connect 12 1 9 0;
#X connect 13 0 2 0;
#X connect 14 0 3 0;
#X connect 14 1 7 0;
#X restore 331 625 pd shells;
#N canvas 2 131 450 370 hum 0;
#X obj 64 198 dac~;
#X obj 28 120 *~ 1;
#X obj 158 119 *~ 1;
#X obj 204 197 random 100;
#X obj 206 217 / 100;
#X msg 206 238 \$1 5000;
#X obj 205 266 line;
#X msg 234 177 0;
#X msg 154 181 1;
#X obj 28 63 bng 15 250 50 0 empty empty empty 17 7 0 10 -262144 -1
-1;
#X obj 207 155 sel 1;
#X obj 28 34 r hum;
#X obj 28 98 tabplay~ humL;
#X obj 158 97 tabplay~ humR;
#X obj 301 96 metro 120000;
#X obj 301 65 tgl 15 0 empty empty empty 17 7 0 10 -262144 -1 -1 1
1;
#X obj 288 37 loadbang;
#X obj 293 130 random 5;
#X connect 1 0 0 0;
#X connect 2 0 0 1;
#X connect 3 0 4 0;
#X connect 4 0 5 0;
#X connect 5 0 6 0;
#X connect 6 0 2 1;
#X connect 6 0 1 1;
#X connect 7 0 5 0;
#X connect 8 0 5 0;
#X connect 9 0 12 0;
#X connect 9 0 13 0;
#X connect 10 0 3 0;
#X connect 10 1 7 0;
#X connect 11 0 9 0;
#X connect 12 0 1 0;
#X connect 12 1 9 0;
#X connect 13 0 2 0;
#X connect 14 0 17 0;
#X connect 15 0 14 0;
#X connect 16 0 15 0;
#X connect 17 0 10 0;
#X restore 112 666 pd hum;
#N canvas 652 12 1224 1028 lights 1;
#X obj 64 222 s g1;
#X obj 101 222 s g2;
#X obj 138 222 s g3;
#X obj 175 222 s g4;
#X obj 74 147 mod 3;
#X obj 31 83 bng 15 250 50 0 empty empty empty 17 7 0 10 -262144 -1
-1;
#X obj 73 114 f;
#X obj 109 114 + 1;
#X obj 72 30 tgl 15 0 empty empty empty 17 7 0 10 -262144 -1 -1 0 1
;
#X floatatom 2 164 5 0 0 0 - - -;
#X obj 271 138 ctlin 1;
#X obj 275 177 bng 15 250 50 0 empty empty empty 17 7 0 10 -262144
-1 -1;
#X obj 73 84 metro 20000;
#X obj 98 603 ctlout;
#N canvas 432 166 453 514 light0 0;
#X obj 58 171 vsl 15 128 0 127 0 0 empty empty empty 0 -9 0 10 -262144
-1 -1 0 1;
#X msg 58 326 \$1 1;
#X obj 144 169 vsl 15 128 0 127 0 0 empty empty empty 0 -9 0 10 -262144
-1 -1 0 1;
#X obj 214 171 vsl 15 128 0 127 0 0 empty empty empty 0 -9 0 10 -262144
-1 -1 0 1;
#X msg 144 324 \$1 2;
#X msg 214 325 \$1 3;
#X obj 284 171 vsl 15 128 0 127 0 0 empty empty empty 0 -9 0 10 -262144
-1 -1 12700 1;
#X msg 284 326 \$1 7;
#X obj 116 411 outlet;
#X obj 284 117 loadbang;
#X msg 284 141 127;
#X obj 58 33 unpack f f f;
#X obj 58 137 / 2;
#X obj 144 136 / 2;
#X obj 58 6 inlet;
#X obj 58 113 line;
#X obj 179 14 inlet fadetime;
#X obj 105 60 f;
#X obj 58 57 t f b;
#X obj 58 88 pack f f;
#X obj 144 112 line;
#X obj 191 59 f;
#X obj 144 56 t f b;
#X obj 144 87 pack f f;
#X obj 218 110 line;
#X obj 265 57 f;
#X obj 218 54 t f b;
#X obj 218 85 pack f f;
#X obj 220 138 / 2;
#X obj 335 73 r lights_on;
#X connect 0 0 1 0;
#X connect 1 0 8 0;
#X connect 2 0 4 0;
#X connect 3 0 5 0;
#X connect 4 0 8 0;
#X connect 5 0 8 0;
#X connect 6 0 7 0;
#X connect 7 0 8 0;
#X connect 9 0 10 0;
#X connect 10 0 6 0;
#X connect 11 0 18 0;
#X connect 11 1 22 0;
#X connect 11 2 26 0;
#X connect 12 0 0 0;
#X connect 13 0 2 0;
#X connect 14 0 11 0;
#X connect 15 0 12 0;
#X connect 16 0 17 1;
#X connect 16 0 21 1;
#X connect 16 0 25 1;
#X connect 17 0 19 1;
#X connect 18 0 19 0;
#X connect 18 1 17 0;
#X connect 19 0 15 0;
#X connect 20 0 13 0;
#X connect 21 0 23 1;
#X connect 22 0 23 0;
#X connect 22 1 21 0;
#X connect 23 0 20 0;
#X connect 24 0 28 0;
#X connect 25 0 27 1;
#X connect 26 0 27 0;
#X connect 26 1 25 0;
#X connect 27 0 24 0;
#X connect 28 0 3 0;
#X connect 29 0 10 0;
#X restore 100 383 pd light0;
#N canvas 224 209 453 514 light1 0;
#X obj 58 171 vsl 15 128 0 127 0 0 empty empty empty 0 -9 0 10 -262144
-1 -1 0 1;
#X obj 144 169 vsl 15 128 0 127 0 0 empty empty empty 0 -9 0 10 -262144
-1 -1 0 1;
#X obj 214 171 vsl 15 128 0 127 0 0 empty empty empty 0 -9 0 10 -262144
-1 -1 0 1;
#X obj 284 171 vsl 15 128 0 127 0 0 empty empty empty 0 -9 0 10 -262144
-1 -1 12700 1;
#X obj 116 411 outlet;
#X obj 284 117 loadbang;
#X msg 284 141 127;
#X obj 58 33 unpack f f f;
#X obj 58 137 / 2;
#X obj 144 136 / 2;
#X obj 58 6 inlet;
#X obj 58 113 line;
#X obj 179 14 inlet fadetime;
#X obj 105 60 f;
#X obj 58 57 t f b;
#X obj 58 88 pack f f;
#X obj 144 112 line;
#X obj 191 59 f;
#X obj 144 56 t f b;
#X obj 144 87 pack f f;
#X obj 218 110 line;
#X obj 265 57 f;
#X obj 218 54 t f b;
#X obj 218 85 pack f f;
#X obj 220 138 / 2;
#X msg 58 326 \$1 11;
#X msg 144 324 \$1 12;
#X msg 214 325 \$1 13;
#X msg 284 326 \$1 17;
#X obj 325 81 r lights_on;
#X connect 0 0 25 0;
#X connect 1 0 26 0;
#X connect 2 0 27 0;
#X connect 3 0 28 0;
#X connect 5 0 6 0;
#X connect 6 0 3 0;
#X connect 7 0 14 0;
#X connect 7 1 18 0;
#X connect 7 2 22 0;
#X connect 8 0 0 0;
#X connect 9 0 1 0;
#X connect 10 0 7 0;
#X connect 11 0 8 0;
#X connect 12 0 13 1;
#X connect 12 0 17 1;
#X connect 12 0 21 1;
#X connect 13 0 15 1;
#X connect 14 0 15 0;
#X connect 14 1 13 0;
#X connect 15 0 11 0;
#X connect 16 0 9 0;
#X connect 17 0 19 1;
#X connect 18 0 19 0;
#X connect 18 1 17 0;
#X connect 19 0 16 0;
#X connect 20 0 24 0;
#X connect 21 0 23 1;
#X connect 22 0 23 0;
#X connect 22 1 21 0;
#X connect 23 0 20 0;
#X connect 24 0 2 0;
#X connect 25 0 4 0;
#X connect 26 0 4 0;
#X connect 27 0 4 0;
#X connect 28 0 4 0;
#X connect 29 0 6 0;
#X restore 420 404 pd light1;
#N canvas 64 107 452 514 light2 0;
#X obj 58 171 vsl 15 128 0 127 0 0 empty empty empty 0 -9 0 10 -262144
-1 -1 0 1;
#X obj 144 169 vsl 15 128 0 127 0 0 empty empty empty 0 -9 0 10 -262144
-1 -1 0 1;
#X obj 214 171 vsl 15 128 0 127 0 0 empty empty empty 0 -9 0 10 -262144
-1 -1 0 1;
#X obj 284 171 vsl 15 128 0 127 0 0 empty empty empty 0 -9 0 10 -262144
-1 -1 12700 1;
#X obj 116 411 outlet;
#X obj 284 117 loadbang;
#X msg 284 141 127;
#X obj 58 33 unpack f f f;
#X obj 58 137 / 2;
#X obj 144 136 / 2;
#X obj 58 6 inlet;
#X obj 58 113 line;
#X obj 179 14 inlet fadetime;
#X obj 105 60 f;
#X obj 58 57 t f b;
#X obj 58 88 pack f f;
#X obj 144 112 line;
#X obj 191 59 f;
#X obj 144 56 t f b;
#X obj 144 87 pack f f;
#X obj 218 110 line;
#X obj 265 57 f;
#X obj 218 54 t f b;
#X obj 218 85 pack f f;
#X obj 220 138 / 2;
#X msg 58 326 \$1 21;
#X msg 144 324 \$1 22;
#X msg 214 325 \$1 23;
#X msg 284 326 \$1 27;
#X obj 345 77 r lights_on;
#X connect 0 0 25 0;
#X connect 1 0 26 0;
#X connect 2 0 27 0;
#X connect 3 0 28 0;
#X connect 5 0 6 0;
#X connect 6 0 3 0;
#X connect 7 0 14 0;
#X connect 7 1 18 0;
#X connect 7 2 22 0;
#X connect 8 0 0 0;
#X connect 9 0 1 0;
#X connect 10 0 7 0;
#X connect 11 0 8 0;
#X connect 12 0 13 1;
#X connect 12 0 17 1;
#X connect 12 0 21 1;
#X connect 13 0 15 1;
#X connect 14 0 15 0;
#X connect 14 1 13 0;
#X connect 15 0 11 0;
#X connect 16 0 9 0;
#X connect 17 0 19 1;
#X connect 18 0 19 0;
#X connect 18 1 17 0;
#X connect 19 0 16 0;
#X connect 20 0 24 0;
#X connect 21 0 23 1;
#X connect 22 0 23 0;
#X connect 22 1 21 0;
#X connect 23 0 20 0;
#X connect 24 0 2 0;
#X connect 25 0 4 0;
#X connect 26 0 4 0;
#X connect 27 0 4 0;
#X connect 28 0 4 0;
#X connect 29 0 6 0;
#X restore 479 588 pd light2;
#N canvas 66 95 453 514 light3 0;
#X obj 58 171 vsl 15 128 0 127 0 0 empty empty empty 0 -9 0 10 -262144
-1 -1 0 1;
#X obj 144 169 vsl 15 128 0 127 0 0 empty empty empty 0 -9 0 10 -262144
-1 -1 0 1;
#X obj 214 171 vsl 15 128 0 127 0 0 empty empty empty 0 -9 0 10 -262144
-1 -1 0 1;
#X obj 284 171 vsl 15 128 0 127 0 0 empty empty empty 0 -9 0 10 -262144
-1 -1 12700 1;
#X obj 116 411 outlet;
#X obj 284 117 loadbang;
#X msg 284 141 127;
#X obj 58 33 unpack f f f;
#X obj 58 137 / 2;
#X obj 144 136 / 2;
#X obj 58 6 inlet;
#X obj 58 113 line;
#X obj 179 14 inlet fadetime;
#X obj 105 60 f;
#X obj 58 57 t f b;
#X obj 58 88 pack f f;
#X obj 144 112 line;
#X obj 191 59 f;
#X obj 144 56 t f b;
#X obj 144 87 pack f f;
#X obj 218 110 line;
#X obj 265 57 f;
#X obj 218 54 t f b;
#X obj 218 85 pack f f;
#X obj 220 138 / 2;
#X msg 58 326 \$1 31;
#X msg 144 324 \$1 32;
#X msg 214 325 \$1 33;
#X msg 284 325 \$1 37;
#X floatatom 307 366 5 0 0 0 - - -;
#X floatatom 227 376 5 0 0 0 - - -;
#X floatatom 149 362 5 0 0 0 - - -;
#X floatatom 53 359 5 0 0 0 - - -;
#X obj 347 84 r lights_on;
#X connect 0 0 25 0;
#X connect 0 0 32 0;
#X connect 1 0 26 0;
#X connect 1 0 31 0;
#X connect 2 0 27 0;
#X connect 2 0 30 0;
#X connect 3 0 28 0;
#X connect 3 0 29 0;
#X connect 5 0 6 0;
#X connect 6 0 3 0;
#X connect 7 0 14 0;
#X connect 7 1 18 0;
#X connect 7 2 22 0;
#X connect 8 0 0 0;
#X connect 9 0 1 0;
#X connect 10 0 7 0;
#X connect 11 0 8 0;
#X connect 12 0 13 1;
#X connect 12 0 17 1;
#X connect 12 0 21 1;
#X connect 13 0 15 1;
#X connect 14 0 15 0;
#X connect 14 1 13 0;
#X connect 15 0 11 0;
#X connect 16 0 9 0;
#X connect 17 0 19 1;
#X connect 18 0 19 0;
#X connect 18 1 17 0;
#X connect 19 0 16 0;
#X connect 20 0 24 0;
#X connect 21 0 23 1;
#X connect 22 0 23 0;
#X connect 22 1 21 0;
#X connect 23 0 20 0;
#X connect 24 0 2 0;
#X connect 25 0 4 0;
#X connect 26 0 4 0;
#X connect 27 0 4 0;
#X connect 28 0 4 0;
#X connect 33 0 6 0;
#X restore 444 736 pd light3;
#X obj 22 287 r g1;
#X obj 98 287 r g2;
#X obj 177 285 r g3;
#X obj 253 285 r g4;
#X obj 330 314 r g1;
#X obj 406 314 r g2;
#X obj 485 312 r g3;
#X obj 561 312 r g4;
#X obj 377 498 r g1;
#X obj 453 498 r g2;
#X obj 532 496 r g3;
#X obj 608 496 r g4;
#X obj 370 633 r g1;
#X obj 446 633 r g2;
#X obj 525 631 r g3;
#X obj 601 631 r g4;
#X msg 243 382 2000;
#X obj 243 356 loadbang;
#X obj 348 181 send lights_on;
#X msg 22 312 21 0 255;
#X msg 316 344 255 0 26;
#X msg 375 528 255 72 0;
#X msg 366 664 255 0 242;
#X msg 98 313 38 153 0;
#X msg 392 345 255 102 0;
#X msg 451 529 255 17 0;
#X msg 442 665 0 253 20;
#X msg 168 313 245 0 86;
#X msg 471 345 128 16 229;
#X msg 530 529 255 0 255;
#X msg 521 665 4 0 240;
#X msg 252 313 255 51 0;
#X msg 553 346 252 80 0;
#X msg 612 530 0 107 4;
#X msg 603 666 0 152 251;
#X obj 76 177 select 0 1 2 3 4;
#X obj 210 223 s g5;
#X obj 310 253 r g5;
#X msg 309 281 252 80 0;
#X obj 630 316 r g5;
#X msg 629 344 122 0 229;
#X obj 676 500 r g5;
#X msg 675 528 0 217 18;
#X obj 681 635 r g5;
#X msg 680 663 252 0 40;
#X connect 4 0 9 0;
#X connect 4 0 53 0;
#X connect 5 0 6 0;
#X connect 6 0 7 0;
#X connect 6 0 4 0;
#X connect 7 0 6 1;
#X connect 8 0 12 0;
#X connect 10 0 11 0;
#X connect 10 0 36 0;
#X connect 11 0 6 0;
#X connect 12 0 6 0;
#X connect 14 0 13 0;
#X connect 15 0 13 0;
#X connect 16 0 13 0;
#X connect 17 0 13 0;
#X connect 18 0 37 0;
#X connect 19 0 41 0;
#X connect 20 0 45 0;
#X connect 21 0 49 0;
#X connect 22 0 38 0;
#X connect 23 0 42 0;
#X connect 24 0 46 0;
#X connect 25 0 50 0;
#X connect 26 0 39 0;
#X connect 27 0 43 0;
#X connect 28 0 47 0;
#X connect 29 0 51 0;
#X connect 30 0 40 0;
#X connect 31 0 44 0;
#X connect 32 0 48 0;
#X connect 33 0 52 0;
#X connect 34 0 14 1;
#X connect 34 0 15 1;
#X connect 34 0 16 1;
#X connect 34 0 17 1;
#X connect 35 0 34 0;
#X connect 37 0 14 0;
#X connect 38 0 15 0;
#X connect 39 0 16 0;
#X connect 40 0 17 0;
#X connect 41 0 14 0;
#X connect 42 0 15 0;
#X connect 43 0 16 0;
#X connect 44 0 17 0;
#X connect 45 0 14 0;
#X connect 46 0 15 0;
#X connect 47 0 16 0;
#X connect 48 0 17 0;
#X connect 49 0 14 0;
#X connect 50 0 15 0;
#X connect 51 0 16 0;
#X connect 52 0 17 0;
#X connect 53 0 0 0;
#X connect 53 1 1 0;
#X connect 53 2 2 0;
#X connect 53 3 3 0;
#X connect 53 4 54 0;
#X connect 55 0 56 0;
#X connect 56 0 14 0;
#X connect 57 0 58 0;
#X connect 58 0 15 0;
#X connect 59 0 60 0;
#X connect 60 0 16 0;
#X connect 61 0 62 0;
#X connect 62 0 17 0;
#X restore 104 507 pd lights;
#X text 33 8 run aconnectgui on nix to setup midi ins and outs;
#N canvas 2 119 450 370 crossing 0;
#X obj 64 198 dac~;
#X obj 28 120 *~ 1;
#X obj 158 119 *~ 1;
#X msg 206 238 \$1 5000;
#X obj 205 266 line;
#X msg 234 177 0;
#X msg 154 181 1;
#X obj 28 63 bng 15 250 50 0 empty empty empty 17 7 0 10 -262144 -1
-1;
#X obj 301 32 inlet;
#X obj 207 155 sel 2;
#X obj 28 98 tabplay~ crossingL;
#X obj 158 97 tabplay~ crossingR;
#X obj 28 34 r crossing;
#X msg 203 194 1;
#X connect 1 0 0 0;
#X connect 2 0 0 1;
#X connect 3 0 4 0;
#X connect 4 0 2 1;
#X connect 4 0 1 1;
#X connect 5 0 3 0;
#X connect 6 0 3 0;
#X connect 7 0 10 0;
#X connect 7 0 11 0;
#X connect 8 0 9 0;
#X connect 9 0 13 0;
#X connect 9 1 5 0;
#X connect 10 0 1 0;
#X connect 10 1 7 0;
#X connect 11 0 2 0;
#X connect 12 0 7 0;
#X connect 13 0 3 0;
#X restore 222 679 pd crossing;
#X msg 520 48 \; pd dsp 1;
#X obj 523 19 loadbang;
#X obj 26 300 karplus_strong~;
#X msg 7 214 60;
#X msg 43 215 65;
#X msg 77 215 63;
#X msg 111 215 68;
#X msg 145 214 67;
#X msg 177 216 72;
#X msg 212 216 75;
#X obj 35 136 random 12;
#X obj 31 161 sel 0 1 2 3 4 5 6 7 8 9 10 11;
#X obj 114 94 bng 15 250 50 0 empty empty empty 17 7 0 10 -262144 -1
-1;
#X msg 162 275 55;
#X msg 196 275 50;
#X msg 230 275 48;
#X msg 264 274 68;
#X msg 296 276 65;
#N canvas 2 101 810 887 bird 0;
#X obj 97 221 dac~;
#X obj 237 220 random 100;
#X obj 239 240 / 100;
#X msg 239 261 \$1 5000;
#X obj 238 289 line;
#X msg 267 200 0;
#X obj 240 178 sel 0;
#X msg 187 204 1;
#X obj 61 86 bng 15 250 50 0 empty empty empty 17 7 0 10 -262144 -1
-1;
#X obj 61 141 *~ 0.7;
#X obj 61 121 tabplay~ birdL;
#X obj 191 120 tabplay~ birdR;
#X obj 61 56 r bird;
#X obj 423 58 tgl 15 0 empty empty empty 17 7 0 10 -262144 -1 -1 1
1;
#X obj 410 30 loadbang;
#X obj 415 123 random 5;
#X obj 191 142 *~ 0.5;
#X obj 422 89 metro 240000;
#X connect 1 0 2 0;
#X connect 2 0 3 0;
#X connect 3 0 4 0;
#X connect 4 0 9 1;
#X connect 4 0 16 1;
#X connect 5 0 3 0;
#X connect 6 0 1 0;
#X connect 6 0 8 0;
#X connect 6 1 5 0;
#X connect 7 0 3 0;
#X connect 8 0 10 0;
#X connect 8 0 11 0;
#X connect 9 0 0 0;
#X connect 10 0 9 0;
#X connect 11 0 16 0;
#X connect 12 0 8 0;
#X connect 13 0 17 0;
#X connect 14 0 13 0;
#X connect 15 0 6 0;
#X connect 16 0 0 1;
#X connect 17 0 15 0;
#X restore 81 769 pd bird;
#N canvas 2 107 450 857 stones 0;
#X obj 204 197 random 100;
#X obj 206 217 / 100;
#X msg 206 238 \$1 5000;
#X obj 205 266 line;
#X msg 234 177 0;
#X msg 154 181 1;
#X obj 28 63 bng 15 250 50 0 empty empty empty 17 7 0 10 -262144 -1
-1;
#X obj 301 32 inlet;
#X obj 28 98 tabplay~ stonesL;
#X obj 158 97 tabplay~ stonesR;
#X obj 207 155 sel 3;
#X obj 27 34 r stones;
#X obj 69 492 dac~;
#X obj 26 214 attenuator;
#X obj 98 215 attenuator;
#X obj 11 449 *~;
#X obj 179 465 *~;
#X floatatom 160 432 5 0 0 0 - - -;
#X obj 85 160 loadbang;
#X obj 28 120 *~ 1;
#X obj 158 119 *~ 1;
#X msg 86 182 -35;
#X connect 0 0 1 0;
#X connect 1 0 2 0;
#X connect 2 0 3 0;
#X connect 3 0 19 1;
#X connect 3 0 20 1;
#X connect 4 0 2 0;
#X connect 5 0 2 0;
#X connect 6 0 8 0;
#X connect 6 0 9 0;
#X connect 7 0 10 0;
#X connect 8 0 19 0;
#X connect 8 1 6 0;
#X connect 9 0 20 0;
#X connect 10 0 0 0;
#X connect 10 1 4 0;
#X connect 11 0 6 0;
#X connect 13 0 15 1;
#X connect 14 0 16 1;
#X connect 14 1 17 0;
#X connect 15 0 12 0;
#X connect 16 0 12 1;
#X connect 18 0 21 0;
#X connect 19 0 15 0;
#X connect 20 0 16 0;
#X connect 21 0 14 0;
#X connect 21 0 13 0;
#X restore 314 682 pd stones;
#X obj 335 570 random 6;
#N canvas 2 119 603 503 ocean1 0;
#X obj 67 467 dac~;
#X msg 307 230 \$1 5000;
#X obj 306 258 line;
#X msg 335 169 0;
#X msg 270 156 1;
#X obj 28 63 bng 15 250 50 0 empty empty empty 17 7 0 10 -262144 -1
-1;
#X obj 301 32 inlet;
#X msg 304 186 1;
#X obj 308 147 sel 4;
#X obj 28 34 r ocean1;
#X obj 28 98 tabplay~ ocean1L;
#X obj 158 97 tabplay~ ocean1R;
#X obj 158 119 *~ 0.5;
#X obj 28 120 *~ 0.5;
#X obj 24 189 attenuator;
#X obj 96 190 attenuator;
#X obj 56 431 *~;
#X obj 97 433 *~;
#X floatatom 158 407 5 0 0 0 - - -;
#X msg 84 157 -20;
#X obj 84 126 loadbang;
#X obj 27 156 hip~ 200;
#X obj 161 158 hip~ 200;
#X connect 1 0 2 0;
#X connect 2 0 12 1;
#X connect 2 0 13 1;
#X connect 3 0 1 0;
#X connect 4 0 1 0;
#X connect 5 0 10 0;
#X connect 5 0 11 0;
#X connect 6 0 8 0;
#X connect 7 0 1 0;
#X connect 8 0 7 0;
#X connect 8 1 3 0;
#X connect 9 0 5 0;
#X connect 10 0 13 0;
#X connect 10 1 5 0;
#X connect 11 0 12 0;
#X connect 12 0 22 0;
#X connect 13 0 21 0;
#X connect 14 0 16 1;
#X connect 15 0 17 1;
#X connect 15 1 18 0;
#X connect 16 0 0 0;
#X connect 17 0 0 1;
#X connect 19 0 15 0;
#X connect 19 0 14 0;
#X connect 20 0 19 0;
#X connect 20 0 15 0;
#X connect 21 0 16 0;
#X connect 22 0 17 0;
#X restore 210 727 pd ocean1;
#N canvas 2 119 450 636 ocean2 0;
#X obj 28 120 *~ 1;
#X obj 158 119 *~ 1;
#X msg 206 238 \$1 5000;
#X obj 205 266 line;
#X msg 234 177 0;
#X msg 282 184 1;
#X obj 28 63 bng 15 250 50 0 empty empty empty 17 7 0 10 -262144 -1
-1;
#X obj 301 32 inlet;
#X msg 203 194 1;
#X obj 28 34 r ocean2;
#X obj 28 98 tabplay~ ocean2L;
#X obj 158 97 tabplay~ ocean2R;
#X obj 67 467 dac~;
#X obj 24 189 attenuator;
#X obj 96 190 attenuator;
#X obj 9 424 *~;
#X obj 177 440 *~;
#X floatatom 158 407 5 0 0 0 - - -;
#X msg 84 157 -20;
#X obj 83 135 loadbang;
#X obj 207 155 sel 5;
#X obj 24 155 hip~ 200;
#X obj 139 158 hip~ 200;
#X connect 0 0 21 0;
#X connect 1 0 22 0;
#X connect 2 0 3 0;
#X connect 3 0 1 1;
#X connect 3 0 0 1;
#X connect 4 0 2 0;
#X connect 5 0 2 0;
#X connect 6 0 10 0;
#X connect 6 0 11 0;
#X connect 7 0 20 0;
#X connect 8 0 2 0;
#X connect 9 0 6 0;
#X connect 10 0 0 0;
#X connect 10 1 6 0;
#X connect 11 0 1 0;
#X connect 13 0 15 1;
#X connect 14 0 16 1;
#X connect 14 1 17 0;
#X connect 15 0 12 0;
#X connect 16 0 12 1;
#X connect 18 0 14 0;
#X connect 18 0 13 0;
#X connect 19 0 18 0;
#X connect 20 0 8 0;
#X connect 20 1 4 0;
#X connect 21 0 15 0;
#X connect 22 0 16 0;
#X restore 294 731 pd ocean2;
#N canvas 2 101 810 887 passion 0;
#X obj 97 221 dac~;
#X obj 237 220 random 100;
#X obj 239 240 / 100;
#X msg 239 261 \$1 5000;
#X obj 238 289 line;
#X msg 267 200 0;
#X obj 240 178 sel 0;
#X msg 187 204 1;
#X obj 124 81 bng 15 250 50 0 empty empty empty 17 7 0 10 -262144 -1
-1;
#X obj 61 141 *~ 0.7;
#X obj 423 58 tgl 15 0 empty empty empty 17 7 0 10 -262144 -1 -1 1
1;
#X obj 410 30 loadbang;
#X obj 415 123 random 5;
#X obj 191 142 *~ 0.5;
#X obj 422 89 metro 240000;
#X obj 61 56 r passion;
#X obj 61 121 tabplay~ passionL;
#X obj 191 120 tabplay~ passionR;
#X connect 1 0 2 0;
#X connect 2 0 3 0;
#X connect 3 0 4 0;
#X connect 4 0 9 1;
#X connect 4 0 13 1;
#X connect 5 0 3 0;
#X connect 6 0 1 0;
#X connect 6 0 8 0;
#X connect 6 1 5 0;
#X connect 7 0 3 0;
#X connect 8 0 16 0;
#X connect 8 0 17 0;
#X connect 9 0 0 0;
#X connect 10 0 14 0;
#X connect 11 0 10 0;
#X connect 12 0 6 0;
#X connect 13 0 0 1;
#X connect 14 0 12 0;
#X connect 15 0 8 0;
#X connect 16 0 9 0;
#X connect 17 0 13 0;
#X restore 55 702 pd passion;
#X obj 278 394 *~ 1.5;
#X obj 29 356 *~ 1.8;
#X connect 0 0 49 0;
#X connect 1 0 0 0;
#X connect 1 0 10 0;
#X connect 2 0 7 1;
#X connect 3 0 2 0;
#X connect 4 0 5 0;
#X connect 6 0 4 0;
#X connect 7 0 9 0;
#X connect 8 0 6 0;
#X connect 9 0 8 0;
#X connect 9 1 11 0;
#X connect 10 0 12 0;
#X connect 11 0 8 1;
#X connect 12 0 7 0;
#X connect 12 1 13 0;
#X connect 13 0 11 1;
#X connect 14 0 31 2;
#X connect 18 0 17 0;
#X connect 19 0 20 0;
#X connect 24 0 17 1;
#X connect 25 0 20 1;
#X connect 28 0 30 0;
#X connect 29 0 59 0;
#X connect 30 0 32 0;
#X connect 31 0 63 0;
#X connect 32 0 29 0;
#X connect 40 0 39 0;
#X connect 41 0 64 0;
#X connect 42 0 41 3;
#X connect 43 0 41 3;
#X connect 44 0 41 3;
#X connect 45 0 41 3;
#X connect 46 0 41 3;
#X connect 47 0 41 3;
#X connect 48 0 41 3;
#X connect 49 0 50 0;
#X connect 50 0 42 0;
#X connect 50 1 43 0;
#X connect 50 2 44 0;
#X connect 50 3 45 0;
#X connect 50 4 46 0;
#X connect 50 5 47 0;
#X connect 50 6 48 0;
#X connect 50 7 52 0;
#X connect 50 8 53 0;
#X connect 50 9 54 0;
#X connect 50 10 55 0;
#X connect 50 11 56 0;
#X connect 51 0 49 0;
#X connect 52 0 41 3;
#X connect 53 0 41 3;
#X connect 54 0 41 3;
#X connect 55 0 41 3;
#X connect 56 0 41 3;
#X connect 59 0 33 0;
#X connect 59 0 34 0;
#X connect 59 0 38 0;
#X connect 59 0 58 0;
#X connect 59 0 60 0;
#X connect 59 0 61 0;
#X connect 63 0 26 0;
#X connect 63 0 26 1;
#X connect 64 0 31 0;
#X connect 64 0 63 0;
