#N canvas 954 63 754 672 10;
#X obj 31 102 sel 127;
#X obj 31 39 ctlin 1;
#X floatatom 495 269 0 0 0 0 - - -;
#X obj 495 244 receive hitL;
#X obj 397 313 line~;
#X obj 397 341 tabread4~ hitL;
#X msg 397 285 0 \, \$1 \$2;
#X obj 391 204 f;
#X obj 397 261 pack f f;
#X obj 394 235 t f f;
#X obj 333 61 bng 15 250 50 0 empty empty empty 17 7 0 10 -262144 -1
-1;
#X obj 429 203 / 44;
#X obj 399 171 t b b;
#X obj 461 161 random 1000;
#N canvas 66 50 387 608 receive_params 0;
#X msg 58 293 input_diffusion1 \$1;
#X msg 70 349 input_diffusion2 \$1;
#X msg 78 410 decay_diffusion1 \$1;
#X msg 87 469 decay_diffusion2 \$1;
#X msg 33 75 predelay \$1;
#X msg 33 132 bandwidth \$1;
#X msg 33 183 damping \$1;
#X msg 33 238 decay \$1;
#X msg 125 533 excursion \$1;
#X obj 33 547 outlet;
#X obj 33 48 r predelay;
#X obj 33 105 r bandwidth;
#X obj 33 159 r damping;
#X obj 33 213 r decay;
#X obj 58 268 r input_diffusion1;
#X obj 70 322 r input_diffusion2;
#X obj 78 383 r decay_diffusion1;
#X obj 87 442 r decay_diffusion2;
#X obj 125 503 r excursion;
#X connect 0 0 9 0;
#X connect 1 0 9 0;
#X connect 2 0 9 0;
#X connect 3 0 9 0;
#X connect 4 0 9 0;
#X connect 5 0 9 0;
#X connect 6 0 9 0;
#X connect 7 0 9 0;
#X connect 8 0 9 0;
#X connect 10 0 4 0;
#X connect 11 0 5 0;
#X connect 12 0 6 0;
#X connect 13 0 7 0;
#X connect 14 0 0 0;
#X connect 15 0 1 0;
#X connect 16 0 2 0;
#X connect 17 0 3 0;
#X connect 18 0 8 0;
#X restore 253 314 pd receive_params;
#X text 553 484 toggle dry/wet output:;
#N canvas 0 50 474 324 presets 0;
#X msg 37 67 default;
#X msg 55 138 huge;
#X msg 37 159 huge_noexcursion;
#X msg 37 90 large;
#X msg 37 113 large_noexcursion;
#X msg 37 182 tadada;
#X msg 227 183 metallic;
#X msg 227 159 bubblebath;
#N canvas 15 98 678 492 preset_loader 0;
#X obj 40 26 inlet;
#X msg 43 122 \; param1 0 \; param2 22050 \; param3 22050 \; param4
0.5 \; param5 0.75 \; param6 0.625 \; param7 0.7 \; param8 0.5 \; param9
0.53761 \;;
#X msg 19 306 \; param1 0 \; param2 10000 \; param3 4637 \; param4
0.98 \; param5 0.685 \; param6 0.779 \; param7 0.74 \; param8 0.68
\; param9 0.53761 \;;
#X msg 199 123 \; param1 0 \; param2 10000 \; param3 4637 \; param4
0.98 \; param5 0.685 \; param6 0.779 \; param7 0.74 \; param8 0.68
\; param9 0 \;;
#X msg 181 303 \; param1 10 \; param2 10000 \; param3 4637 \; param4
0.99 \; param5 0.685 \; param6 0.779 \; param7 0.889 \; param8 0.84
\; param9 0.53761 \;;
#X msg 359 131 \; param1 10 \; param2 10000 \; param3 4637 \; param4
0.99 \; param5 0.685 \; param6 0.779 \; param7 0.889 \; param8 0.84
\; param9 0 \;;
#X msg 346 302 \; param1 216.535 \; param2 22050 \; param3 22050 \;
param4 0.677165 \; param5 0.850394 \; param6 0.92126 \; param7 0.80315
\; param8 0.818898 \; param9 0.11811 \;;
#X obj 39 70 route default large large_noexcursion huge huge_noexcursion
tadada;
#X connect 0 0 7 0;
#X connect 7 0 1 0;
#X connect 7 1 2 0;
#X connect 7 2 3 0;
#X connect 7 3 4 0;
#X connect 7 4 5 0;
#X connect 7 5 6 0;
#X restore 37 219 pd preset_loader;
#N canvas 15 98 678 492 preset_loader 0;
#X obj 40 26 inlet;
#X msg 39 203 \; param1 0 \; param2 22050 \; param3 22050 \; param4
0.653543 \; param5 0.629921 \; param6 0.409449 \; param7 0.889764 \;
param8 0.866142 \; param9 0 \;;
#X msg 209 204 \; param1 0 \; param2 2894.14 \; param3 22050 \; param4
0.92126 \; param5 0.897638 \; param6 0.299213 \; param7 0.984252 \;
param8 0.944882 \; param9 0.393701 \;;
#X obj 39 70 route metallic bubblebath;
#X connect 0 0 3 0;
#X connect 3 0 1 0;
#X connect 3 1 2 0;
#X restore 227 219 pd preset_loader;
#X obj 37 17 loadbang;
#X connect 0 0 8 0;
#X connect 1 0 8 0;
#X connect 2 0 8 0;
#X connect 3 0 8 0;
#X connect 4 0 8 0;
#X connect 5 0 8 0;
#X connect 6 0 9 0;
#X connect 7 0 9 0;
#X connect 10 0 3 0;
#X restore 573 446 pd presets;
#N canvas 0 50 462 311 dry 0;
#X obj 75 73 inlet;
#X obj 182 45 inlet;
#X obj 77 201 s dry;
#X obj 76 149 * 1;
#X obj 181 79 dbtorms;
#X obj 181 109 t b a;
#X connect 0 0 3 0;
#X connect 1 0 4 0;
#X connect 3 0 2 0;
#X connect 4 0 5 0;
#X connect 5 0 3 0;
#X connect 5 1 3 1;
#X restore 576 539 pd dry;
#X obj 576 518 tgl 15 1 empty empty empty 17 7 0 10 -262144 -1 -1 1
1;
#X obj 576 574 tgl 15 1 empty empty empty 17 7 0 10 -262144 -1 -1 1
1;
#N canvas 0 50 470 319 wet 0;
#X obj 75 73 inlet;
#X obj 162 43 inlet;
#X obj 76 149 * 1;
#X obj 161 80 dbtorms;
#X obj 77 201 s wet;
#X obj 162 111 t b a;
#X connect 0 0 2 0;
#X connect 1 0 3 0;
#X connect 2 0 4 0;
#X connect 3 0 5 0;
#X connect 5 0 2 0;
#X connect 5 1 2 1;
#X restore 576 594 pd wet;
#N canvas 670 63 288 344 params 0;
#X obj 25 92 hsl 128 15 220.5 22050 1 0 param3 param3 damping -2 -8
0 10 -262144 -1 -1 8400 0;
#X floatatom 157 91 10 0 0 0 - param3 damping;
#X obj 25 123 hsl 128 15 0 1 0 0 param4 param4 decay -2 -8 0 10 -262144
-1 -1 12446 0;
#X floatatom 157 122 10 0 0 0 - param4 decay;
#X obj 25 28 hsl 128 15 0 250 0 0 param1 param1 predelay -2 -8 0 10
-262144 -1 -1 0 0;
#X floatatom 157 27 10 0 0 0 - param1 predelay;
#X obj 25 60 hsl 128 15 220.5 22050 1 0 param2 param2 bandwidth -2
-8 0 10 -262144 -1 -1 10519 0;
#X floatatom 157 59 10 0 0 0 - param2 bandwidth;
#X obj 24 191 hsl 128 15 0 1 0 0 param6 param6 input_diffusion_2 -2
-8 0 10 -262144 -1 -1 9893 0;
#X floatatom 156 190 10 0 0 0 - param6 input_diffusion2;
#X obj 25 156 hsl 128 15 0 1 0 0 param5 param5 input_diffusion_1 -2
-8 0 10 -262144 -1 -1 8700 0;
#X floatatom 157 155 10 0 0 0 - param5 input_diffusion1;
#X obj 23 255 hsl 128 15 0 1 0 0 param8 param8 decay_diffusion_2 -2
-8 0 10 -262144 -1 -1 8636 0;
#X floatatom 155 254 10 0 0 0 - param8 decay_diffusion2;
#X obj 24 222 hsl 128 15 0 1 0 0 param7 param7 decay_diffusion_1 -2
-8 0 10 -262144 -1 -1 9398 0;
#X floatatom 156 221 10 0 0 0 - param7 decay_diffusion1;
#X obj 23 287 hsl 128 15 0 5 0 0 param9 param9 excursion -2 -8 0 10
-262144 -1 -1 1366 0;
#X floatatom 155 286 10 0 0 0 - param9 excursion;
#X restore 574 383 pd params;
#X text 553 420 click to select presets:;
#X text 551 358 click to edit parameters:;
#X obj 619 518 nbx 3 14 -1e+037 1e+037 0 1 empty empty empty 0 -8 0
10 -262144 -1 -1 100 256;
#X obj 619 574 nbx 3 14 -1e+037 1e+037 0 1 empty empty empty 0 -8 0
10 -262144 -1 -1 100 256;
#X obj 276 428 dac~;
#N canvas 220 273 880 587 tables 0;
#X obj 83 135 soundfiler;
#X obj 82 68 table hitL;
#X obj 83 90 table hitR;
#X msg 32 33 read -resize bin_hit.wav hitL hitR;
#X obj 83 161 send hitL;
#X obj 356 137 soundfiler;
#X msg 305 35 read -resize rain_under_cover.wav rainL rainR;
#X obj 355 70 table rainL;
#X obj 356 92 table rainR;
#X obj 356 163 send rain;
#X obj 86 343 soundfiler;
#X msg 35 241 read -resize shells_in_store.wav shellsL shellsR;
#X obj 85 276 table shellsL;
#X obj 86 298 table shellsR;
#X obj 86 369 send shells;
#X obj 457 353 soundfiler;
#X msg 406 251 read -resize humming_machine.wav humL humR;
#X obj 456 286 table humL;
#X obj 457 308 table humR;
#X obj 457 379 send hum;
#X obj 248 -2 loadbang;
#X obj 514 181 soundfiler;
#X msg 463 78 read -resize crossing_into_karman.wav crossingL crossingR
;
#X obj 513 114 table crossingL;
#X obj 514 136 table crossingR;
#X obj 514 207 send crossing;
#X connect 0 0 4 0;
#X connect 3 0 0 0;
#X connect 5 0 9 0;
#X connect 6 0 5 0;
#X connect 10 0 14 0;
#X connect 11 0 10 0;
#X connect 15 0 19 0;
#X connect 16 0 15 0;
#X connect 20 0 16 0;
#X connect 20 0 6 0;
#X connect 20 0 3 0;
#X connect 20 0 11 0;
#X connect 20 0 22 0;
#X connect 21 0 25 0;
#X connect 22 0 21 0;
#X restore 396 39 pd tables;
#X obj 337 462 loadbang;
#X obj 336 550 bng 15 250 50 0 empty empty empty 17 7 0 10 -262144
-1 -1;
#X obj 337 494 tgl 15 0 empty empty empty 17 7 0 10 -262144 -1 -1 1
1;
#X obj 103 967 dac~;
#X obj 277 365 jon~;
#X obj 278 394 *~ 0.5;
#X obj 336 524 metro 60000;
#N canvas 2 101 450 370 rain 0;
#X obj 61 643 dac~;
#X obj 25 565 *~ 1;
#X obj 155 564 *~ 1;
#X obj 201 642 random 100;
#X obj 203 662 / 100;
#X msg 203 683 \$1 5000;
#X obj 202 711 line;
#X msg 231 622 0;
#X obj 204 600 sel 0;
#X obj 25 543 tabplay~ rainL;
#X obj 155 542 tabplay~ rainL;
#X obj 25 478 r rain;
#X msg 151 626 1;
#X obj 25 508 bng 15 250 50 0 empty empty empty 17 7 0 10 -262144 -1
-1;
#X obj 298 477 inlet;
#X connect 1 0 0 0;
#X connect 2 0 0 1;
#X connect 3 0 4 0;
#X connect 4 0 5 0;
#X connect 5 0 6 0;
#X connect 6 0 2 1;
#X connect 6 0 1 1;
#X connect 7 0 5 0;
#X connect 8 0 3 0;
#X connect 8 1 7 0;
#X connect 9 0 1 0;
#X connect 9 1 13 0;
#X connect 10 0 2 0;
#X connect 11 0 13 0;
#X connect 12 0 5 0;
#X connect 13 0 9 0;
#X connect 13 0 10 0;
#X connect 14 0 8 0;
#X restore 240 623 pd rain;
#N canvas 2 107 450 370 shells 0;
#X obj 64 198 dac~;
#X obj 28 120 *~ 1;
#X obj 158 119 *~ 1;
#X obj 204 197 random 100;
#X obj 206 217 / 100;
#X msg 206 238 \$1 5000;
#X obj 205 266 line;
#X msg 234 177 0;
#X msg 154 181 1;
#X obj 28 63 bng 15 250 50 0 empty empty empty 17 7 0 10 -262144 -1
-1;
#X obj 301 32 inlet;
#X obj 28 34 r shells;
#X obj 28 98 tabplay~ shellsL;
#X obj 158 97 tabplay~ shellsR;
#X obj 207 155 sel 1;
#X connect 1 0 0 0;
#X connect 2 0 0 1;
#X connect 3 0 4 0;
#X connect 4 0 5 0;
#X connect 5 0 6 0;
#X connect 6 0 2 1;
#X connect 6 0 1 1;
#X connect 7 0 5 0;
#X connect 8 0 5 0;
#X connect 9 0 12 0;
#X connect 9 0 13 0;
#X connect 10 0 14 0;
#X connect 11 0 9 0;
#X connect 12 0 1 0;
#X connect 12 1 9 0;
#X connect 13 0 2 0;
#X connect 14 0 3 0;
#X connect 14 1 7 0;
#X restore 335 652 pd shells;
#N canvas 2 131 450 370 hum 0;
#X obj 64 198 dac~;
#X obj 28 120 *~ 1;
#X obj 158 119 *~ 1;
#X obj 204 197 random 100;
#X obj 206 217 / 100;
#X msg 206 238 \$1 5000;
#X obj 205 266 line;
#X msg 234 177 0;
#X msg 154 181 1;
#X obj 28 63 bng 15 250 50 0 empty empty empty 17 7 0 10 -262144 -1
-1;
#X obj 207 155 sel 1;
#X obj 28 34 r hum;
#X obj 28 98 tabplay~ humL;
#X obj 158 97 tabplay~ humR;
#X obj 301 96 metro 120000;
#X obj 301 65 tgl 15 0 empty empty empty 17 7 0 10 -262144 -1 -1 1
1;
#X obj 288 37 loadbang;
#X obj 293 130 random 5;
#X connect 1 0 0 0;
#X connect 2 0 0 1;
#X connect 3 0 4 0;
#X connect 4 0 5 0;
#X connect 5 0 6 0;
#X connect 6 0 2 1;
#X connect 6 0 1 1;
#X connect 7 0 5 0;
#X connect 8 0 5 0;
#X connect 9 0 12 0;
#X connect 9 0 13 0;
#X connect 10 0 3 0;
#X connect 10 1 7 0;
#X connect 11 0 9 0;
#X connect 12 0 1 0;
#X connect 12 1 9 0;
#X connect 13 0 2 0;
#X connect 14 0 17 0;
#X connect 15 0 14 0;
#X connect 16 0 15 0;
#X connect 17 0 10 0;
#X restore 146 577 pd hum;
#N canvas 395 0 1224 1028 lights 0;
#X obj 76 177 select 0 1 2 3;
#X obj 64 222 s g1;
#X obj 101 222 s g2;
#X obj 138 222 s g3;
#X obj 175 222 s g4;
#X obj 74 147 mod 3;
#X obj 31 83 bng 15 250 50 0 empty empty empty 17 7 0 10 -262144 -1
-1;
#X obj 73 114 f;
#X obj 109 114 + 1;
#X obj 72 30 tgl 15 0 empty empty empty 17 7 0 10 -262144 -1 -1 0 1
;
#X floatatom 2 164 5 0 0 0 - - -;
#X obj 271 138 ctlin 1;
#X obj 275 177 bng 15 250 50 0 empty empty empty 17 7 0 10 -262144
-1 -1;
#X obj 73 84 metro 20000;
#X obj 98 603 ctlout;
#N canvas 432 166 453 514 light0 0;
#X obj 58 171 vsl 15 128 0 127 0 0 empty empty empty 0 -9 0 10 -262144
-1 -1 0 1;
#X msg 58 326 \$1 1;
#X obj 144 169 vsl 15 128 0 127 0 0 empty empty empty 0 -9 0 10 -262144
-1 -1 0 1;
#X obj 214 171 vsl 15 128 0 127 0 0 empty empty empty 0 -9 0 10 -262144
-1 -1 0 1;
#X msg 144 324 \$1 2;
#X msg 214 325 \$1 3;
#X obj 284 171 vsl 15 128 0 127 0 0 empty empty empty 0 -9 0 10 -262144
-1 -1 12700 1;
#X msg 284 326 \$1 7;
#X obj 116 411 outlet;
#X obj 284 117 loadbang;
#X msg 284 141 127;
#X obj 58 33 unpack f f f;
#X obj 58 137 / 2;
#X obj 144 136 / 2;
#X obj 58 6 inlet;
#X obj 58 113 line;
#X obj 179 14 inlet fadetime;
#X obj 105 60 f;
#X obj 58 57 t f b;
#X obj 58 88 pack f f;
#X obj 144 112 line;
#X obj 191 59 f;
#X obj 144 56 t f b;
#X obj 144 87 pack f f;
#X obj 218 110 line;
#X obj 265 57 f;
#X obj 218 54 t f b;
#X obj 218 85 pack f f;
#X obj 220 138 / 2;
#X obj 335 73 r lights_on;
#X connect 0 0 1 0;
#X connect 1 0 8 0;
#X connect 2 0 4 0;
#X connect 3 0 5 0;
#X connect 4 0 8 0;
#X connect 5 0 8 0;
#X connect 6 0 7 0;
#X connect 7 0 8 0;
#X connect 9 0 10 0;
#X connect 10 0 6 0;
#X connect 11 0 18 0;
#X connect 11 1 22 0;
#X connect 11 2 26 0;
#X connect 12 0 0 0;
#X connect 13 0 2 0;
#X connect 14 0 11 0;
#X connect 15 0 12 0;
#X connect 16 0 17 1;
#X connect 16 0 21 1;
#X connect 16 0 25 1;
#X connect 17 0 19 1;
#X connect 18 0 19 0;
#X connect 18 1 17 0;
#X connect 19 0 15 0;
#X connect 20 0 13 0;
#X connect 21 0 23 1;
#X connect 22 0 23 0;
#X connect 22 1 21 0;
#X connect 23 0 20 0;
#X connect 24 0 28 0;
#X connect 25 0 27 1;
#X connect 26 0 27 0;
#X connect 26 1 25 0;
#X connect 27 0 24 0;
#X connect 28 0 3 0;
#X connect 29 0 10 0;
#X restore 100 383 pd light0;
#X msg 22 312 252 41 51;
#N canvas 224 209 453 514 light1 0;
#X obj 58 171 vsl 15 128 0 127 0 0 empty empty empty 0 -9 0 10 -262144
-1 -1 0 1;
#X obj 144 169 vsl 15 128 0 127 0 0 empty empty empty 0 -9 0 10 -262144
-1 -1 0 1;
#X obj 214 171 vsl 15 128 0 127 0 0 empty empty empty 0 -9 0 10 -262144
-1 -1 0 1;
#X obj 284 171 vsl 15 128 0 127 0 0 empty empty empty 0 -9 0 10 -262144
-1 -1 12700 1;
#X obj 116 411 outlet;
#X obj 284 117 loadbang;
#X msg 284 141 127;
#X obj 58 33 unpack f f f;
#X obj 58 137 / 2;
#X obj 144 136 / 2;
#X obj 58 6 inlet;
#X obj 58 113 line;
#X obj 179 14 inlet fadetime;
#X obj 105 60 f;
#X obj 58 57 t f b;
#X obj 58 88 pack f f;
#X obj 144 112 line;
#X obj 191 59 f;
#X obj 144 56 t f b;
#X obj 144 87 pack f f;
#X obj 218 110 line;
#X obj 265 57 f;
#X obj 218 54 t f b;
#X obj 218 85 pack f f;
#X obj 220 138 / 2;
#X msg 58 326 \$1 11;
#X msg 144 324 \$1 12;
#X msg 214 325 \$1 13;
#X msg 284 326 \$1 17;
#X obj 325 81 r lights_on;
#X connect 0 0 25 0;
#X connect 1 0 26 0;
#X connect 2 0 27 0;
#X connect 3 0 28 0;
#X connect 5 0 6 0;
#X connect 6 0 3 0;
#X connect 7 0 14 0;
#X connect 7 1 18 0;
#X connect 7 2 22 0;
#X connect 8 0 0 0;
#X connect 9 0 1 0;
#X connect 10 0 7 0;
#X connect 11 0 8 0;
#X connect 12 0 13 1;
#X connect 12 0 17 1;
#X connect 12 0 21 1;
#X connect 13 0 15 1;
#X connect 14 0 15 0;
#X connect 14 1 13 0;
#X connect 15 0 11 0;
#X connect 16 0 9 0;
#X connect 17 0 19 1;
#X connect 18 0 19 0;
#X connect 18 1 17 0;
#X connect 19 0 16 0;
#X connect 20 0 24 0;
#X connect 21 0 23 1;
#X connect 22 0 23 0;
#X connect 22 1 21 0;
#X connect 23 0 20 0;
#X connect 24 0 2 0;
#X connect 25 0 4 0;
#X connect 26 0 4 0;
#X connect 27 0 4 0;
#X connect 28 0 4 0;
#X connect 29 0 6 0;
#X restore 420 404 pd light1;
#N canvas 64 107 452 514 light2 0;
#X obj 58 171 vsl 15 128 0 127 0 0 empty empty empty 0 -9 0 10 -262144
-1 -1 0 1;
#X obj 144 169 vsl 15 128 0 127 0 0 empty empty empty 0 -9 0 10 -262144
-1 -1 0 1;
#X obj 214 171 vsl 15 128 0 127 0 0 empty empty empty 0 -9 0 10 -262144
-1 -1 0 1;
#X obj 284 171 vsl 15 128 0 127 0 0 empty empty empty 0 -9 0 10 -262144
-1 -1 12700 1;
#X obj 116 411 outlet;
#X obj 284 117 loadbang;
#X msg 284 141 127;
#X obj 58 33 unpack f f f;
#X obj 58 137 / 2;
#X obj 144 136 / 2;
#X obj 58 6 inlet;
#X obj 58 113 line;
#X obj 179 14 inlet fadetime;
#X obj 105 60 f;
#X obj 58 57 t f b;
#X obj 58 88 pack f f;
#X obj 144 112 line;
#X obj 191 59 f;
#X obj 144 56 t f b;
#X obj 144 87 pack f f;
#X obj 218 110 line;
#X obj 265 57 f;
#X obj 218 54 t f b;
#X obj 218 85 pack f f;
#X obj 220 138 / 2;
#X msg 58 326 \$1 21;
#X msg 144 324 \$1 22;
#X msg 214 325 \$1 23;
#X msg 284 326 \$1 27;
#X obj 345 77 r lights_on;
#X connect 0 0 25 0;
#X connect 1 0 26 0;
#X connect 2 0 27 0;
#X connect 3 0 28 0;
#X connect 5 0 6 0;
#X connect 6 0 3 0;
#X connect 7 0 14 0;
#X connect 7 1 18 0;
#X connect 7 2 22 0;
#X connect 8 0 0 0;
#X connect 9 0 1 0;
#X connect 10 0 7 0;
#X connect 11 0 8 0;
#X connect 12 0 13 1;
#X connect 12 0 17 1;
#X connect 12 0 21 1;
#X connect 13 0 15 1;
#X connect 14 0 15 0;
#X connect 14 1 13 0;
#X connect 15 0 11 0;
#X connect 16 0 9 0;
#X connect 17 0 19 1;
#X connect 18 0 19 0;
#X connect 18 1 17 0;
#X connect 19 0 16 0;
#X connect 20 0 24 0;
#X connect 21 0 23 1;
#X connect 22 0 23 0;
#X connect 22 1 21 0;
#X connect 23 0 20 0;
#X connect 24 0 2 0;
#X connect 25 0 4 0;
#X connect 26 0 4 0;
#X connect 27 0 4 0;
#X connect 28 0 4 0;
#X connect 29 0 6 0;
#X restore 479 588 pd light2;
#N canvas 66 95 453 514 light3 0;
#X obj 58 171 vsl 15 128 0 127 0 0 empty empty empty 0 -9 0 10 -262144
-1 -1 0 1;
#X obj 144 169 vsl 15 128 0 127 0 0 empty empty empty 0 -9 0 10 -262144
-1 -1 0 1;
#X obj 214 171 vsl 15 128 0 127 0 0 empty empty empty 0 -9 0 10 -262144
-1 -1 0 1;
#X obj 284 171 vsl 15 128 0 127 0 0 empty empty empty 0 -9 0 10 -262144
-1 -1 12700 1;
#X obj 116 411 outlet;
#X obj 284 117 loadbang;
#X msg 284 141 127;
#X obj 58 33 unpack f f f;
#X obj 58 137 / 2;
#X obj 144 136 / 2;
#X obj 58 6 inlet;
#X obj 58 113 line;
#X obj 179 14 inlet fadetime;
#X obj 105 60 f;
#X obj 58 57 t f b;
#X obj 58 88 pack f f;
#X obj 144 112 line;
#X obj 191 59 f;
#X obj 144 56 t f b;
#X obj 144 87 pack f f;
#X obj 218 110 line;
#X obj 265 57 f;
#X obj 218 54 t f b;
#X obj 218 85 pack f f;
#X obj 220 138 / 2;
#X msg 58 326 \$1 31;
#X msg 144 324 \$1 32;
#X msg 214 325 \$1 33;
#X msg 284 325 \$1 37;
#X floatatom 307 366 5 0 0 0 - - -;
#X floatatom 227 376 5 0 0 0 - - -;
#X floatatom 149 362 5 0 0 0 - - -;
#X floatatom 53 359 5 0 0 0 - - -;
#X obj 347 84 r lights_on;
#X connect 0 0 25 0;
#X connect 0 0 32 0;
#X connect 1 0 26 0;
#X connect 1 0 31 0;
#X connect 2 0 27 0;
#X connect 2 0 30 0;
#X connect 3 0 28 0;
#X connect 3 0 29 0;
#X connect 5 0 6 0;
#X connect 6 0 3 0;
#X connect 7 0 14 0;
#X connect 7 1 18 0;
#X connect 7 2 22 0;
#X connect 8 0 0 0;
#X connect 9 0 1 0;
#X connect 10 0 7 0;
#X connect 11 0 8 0;
#X connect 12 0 13 1;
#X connect 12 0 17 1;
#X connect 12 0 21 1;
#X connect 13 0 15 1;
#X connect 14 0 15 0;
#X connect 14 1 13 0;
#X connect 15 0 11 0;
#X connect 16 0 9 0;
#X connect 17 0 19 1;
#X connect 18 0 19 0;
#X connect 18 1 17 0;
#X connect 19 0 16 0;
#X connect 20 0 24 0;
#X connect 21 0 23 1;
#X connect 22 0 23 0;
#X connect 22 1 21 0;
#X connect 23 0 20 0;
#X connect 24 0 2 0;
#X connect 25 0 4 0;
#X connect 26 0 4 0;
#X connect 27 0 4 0;
#X connect 28 0 4 0;
#X connect 33 0 6 0;
#X restore 444 736 pd light3;
#X obj 22 287 r g1;
#X obj 98 287 r g2;
#X obj 177 285 r g3;
#X obj 253 285 r g4;
#X obj 330 314 r g1;
#X obj 406 314 r g2;
#X obj 485 312 r g3;
#X obj 561 312 r g4;
#X obj 377 498 r g1;
#X obj 453 498 r g2;
#X obj 532 496 r g3;
#X obj 608 496 r g4;
#X obj 370 633 r g1;
#X obj 446 633 r g2;
#X obj 525 631 r g3;
#X obj 601 631 r g4;
#X msg 243 382 2000;
#X obj 243 356 loadbang;
#X msg 316 344 253 43 242;
#X msg 375 528 254 242 58;
#X msg 366 664 253 236 233;
#X msg 98 313 36 230 52;
#X msg 392 345 254 147 18;
#X msg 451 529 254 247 168;
#X msg 442 665 11 107 15;
#X msg 177 313 107 213 225;
#X msg 471 345 255 182 119;
#X msg 530 529 255 217 142;
#X msg 521 665 255 131 100;
#X msg 252 313 8 29 215;
#X msg 553 346 253 212 48;
#X msg 612 530 251 71 75;
#X msg 603 666 85 15 133;
#X obj 348 181 send lights_on;
#X connect 0 0 1 0;
#X connect 0 1 2 0;
#X connect 0 2 3 0;
#X connect 0 3 4 0;
#X connect 5 0 0 0;
#X connect 5 0 10 0;
#X connect 6 0 7 0;
#X connect 7 0 8 0;
#X connect 7 0 5 0;
#X connect 8 0 7 1;
#X connect 9 0 13 0;
#X connect 11 0 12 0;
#X connect 11 0 53 0;
#X connect 12 0 7 0;
#X connect 13 0 7 0;
#X connect 15 0 14 0;
#X connect 16 0 15 0;
#X connect 17 0 14 0;
#X connect 18 0 14 0;
#X connect 19 0 14 0;
#X connect 20 0 16 0;
#X connect 21 0 41 0;
#X connect 22 0 45 0;
#X connect 23 0 49 0;
#X connect 24 0 38 0;
#X connect 25 0 42 0;
#X connect 26 0 46 0;
#X connect 27 0 50 0;
#X connect 28 0 39 0;
#X connect 29 0 43 0;
#X connect 30 0 47 0;
#X connect 31 0 51 0;
#X connect 32 0 40 0;
#X connect 33 0 44 0;
#X connect 34 0 48 0;
#X connect 35 0 52 0;
#X connect 36 0 15 1;
#X connect 36 0 17 1;
#X connect 36 0 18 1;
#X connect 36 0 19 1;
#X connect 37 0 36 0;
#X connect 38 0 17 0;
#X connect 39 0 18 0;
#X connect 40 0 19 0;
#X connect 41 0 15 0;
#X connect 42 0 17 0;
#X connect 43 0 18 0;
#X connect 44 0 19 0;
#X connect 45 0 15 0;
#X connect 46 0 17 0;
#X connect 47 0 18 0;
#X connect 48 0 19 0;
#X connect 49 0 15 0;
#X connect 50 0 17 0;
#X connect 51 0 18 0;
#X connect 52 0 19 0;
#X restore 104 507 pd lights;
#X text 33 8 run aconnectgui on nix to setup midi ins and outs;
#N canvas 2 119 450 370 crossing 0;
#X obj 64 198 dac~;
#X obj 28 120 *~ 1;
#X obj 158 119 *~ 1;
#X msg 206 238 \$1 5000;
#X obj 205 266 line;
#X msg 234 177 0;
#X msg 154 181 1;
#X obj 28 63 bng 15 250 50 0 empty empty empty 17 7 0 10 -262144 -1
-1;
#X obj 301 32 inlet;
#X obj 207 155 sel 2;
#X obj 28 98 tabplay~ crossingL;
#X obj 158 97 tabplay~ crossingR;
#X obj 28 34 r crossing;
#X msg 203 194 1;
#X connect 1 0 0 0;
#X connect 2 0 0 1;
#X connect 3 0 4 0;
#X connect 4 0 2 1;
#X connect 4 0 1 1;
#X connect 5 0 3 0;
#X connect 6 0 3 0;
#X connect 7 0 10 0;
#X connect 7 0 11 0;
#X connect 8 0 9 0;
#X connect 9 0 13 0;
#X connect 9 1 5 0;
#X connect 10 0 1 0;
#X connect 10 1 7 0;
#X connect 11 0 2 0;
#X connect 12 0 7 0;
#X connect 13 0 3 0;
#X restore 414 654 pd crossing;
#X obj 335 570 random 3;
#X msg 520 48 \; pd dsp 1;
#X obj 523 19 loadbang;
#X obj 26 300 karplus_strong~;
#X obj 29 356 *~ 1;
#X msg 7 214 60;
#X msg 43 215 65;
#X msg 77 215 63;
#X msg 111 215 68;
#X msg 145 214 67;
#X msg 177 216 72;
#X msg 212 216 75;
#X obj 35 136 random 12;
#X obj 31 161 sel 0 1 2 3 4 5 6 7 8 9 10 11;
#X obj 114 94 bng 15 250 50 0 empty empty empty 17 7 0 10 -262144 -1
-1;
#X msg 162 275 55;
#X msg 196 275 50;
#X msg 230 275 48;
#X msg 264 274 68;
#X msg 296 276 65;
#X connect 0 0 53 0;
#X connect 1 0 0 0;
#X connect 1 0 10 0;
#X connect 2 0 7 1;
#X connect 3 0 2 0;
#X connect 4 0 5 0;
#X connect 6 0 4 0;
#X connect 7 0 9 0;
#X connect 8 0 6 0;
#X connect 9 0 8 0;
#X connect 9 1 11 0;
#X connect 10 0 12 0;
#X connect 11 0 8 1;
#X connect 12 0 7 0;
#X connect 12 1 13 0;
#X connect 13 0 11 1;
#X connect 14 0 32 2;
#X connect 18 0 17 0;
#X connect 19 0 20 0;
#X connect 24 0 17 1;
#X connect 25 0 20 1;
#X connect 28 0 30 0;
#X connect 29 0 41 0;
#X connect 30 0 34 0;
#X connect 32 0 33 0;
#X connect 33 0 26 0;
#X connect 33 0 26 1;
#X connect 34 0 29 0;
#X connect 41 0 35 0;
#X connect 41 0 36 0;
#X connect 41 0 40 0;
#X connect 43 0 42 0;
#X connect 44 0 45 0;
#X connect 45 0 32 0;
#X connect 45 0 33 0;
#X connect 46 0 44 3;
#X connect 47 0 44 3;
#X connect 48 0 44 3;
#X connect 49 0 44 3;
#X connect 50 0 44 3;
#X connect 51 0 44 3;
#X connect 52 0 44 3;
#X connect 53 0 54 0;
#X connect 54 0 46 0;
#X connect 54 1 47 0;
#X connect 54 2 48 0;
#X connect 54 3 49 0;
#X connect 54 4 50 0;
#X connect 54 5 51 0;
#X connect 54 6 52 0;
#X connect 54 7 56 0;
#X connect 54 8 57 0;
#X connect 54 9 58 0;
#X connect 54 10 59 0;
#X connect 54 11 60 0;
#X connect 55 0 53 0;
#X connect 56 0 44 3;
#X connect 57 0 44 3;
#X connect 58 0 44 3;
#X connect 59 0 44 3;
#X connect 60 0 44 3;
